<mxfile host="www.draw.io" modified="2020-04-07T15:46:12.804Z" agent="5.0 (Windows NT 10.0; Win64; x64) AppleWebKit/537.36 (KHTML, like Gecko) Chrome/80.0.3987.149 Safari/537.36" etag="lOcuFPHgf0UU0iEASHfM" version="12.9.6" type="github">
  <diagram id="RCCBKHZfpEDbx3k7PhJU" name="Page-1">
    <mxGraphModel dx="3146.32" dy="100.35" grid="0" gridSize="10" guides="1" tooltips="1" connect="1" arrows="1" fold="1" page="1" pageScale="1" pageWidth="850" pageHeight="1100" math="0" shadow="0">
      <root>
        <mxCell id="0" />
        <mxCell id="1" parent="0" />
        <mxCell id="GLs9wwnoJWoWIzgxKCds-161" style="edgeStyle=orthogonalEdgeStyle;rounded=0;orthogonalLoop=1;jettySize=auto;html=1;exitX=0.5;exitY=1;exitDx=0;exitDy=0;entryX=0;entryY=0.5;entryDx=0;entryDy=0;fontSize=20;" edge="1" parent="1" source="GLs9wwnoJWoWIzgxKCds-2" target="GLs9wwnoJWoWIzgxKCds-4">
          <mxGeometry relative="1" as="geometry" />
        </mxCell>
        <mxCell id="GLs9wwnoJWoWIzgxKCds-2" value="0" style="rounded=0;whiteSpace=wrap;html=1;fontSize=20;" vertex="1" parent="1">
          <mxGeometry x="680" y="80" width="80" height="40" as="geometry" />
        </mxCell>
        <mxCell id="GLs9wwnoJWoWIzgxKCds-229" style="edgeStyle=orthogonalEdgeStyle;rounded=0;orthogonalLoop=1;jettySize=auto;html=1;exitX=0.5;exitY=1;exitDx=0;exitDy=0;fontSize=20;" edge="1" parent="1" source="GLs9wwnoJWoWIzgxKCds-3" target="GLs9wwnoJWoWIzgxKCds-109">
          <mxGeometry relative="1" as="geometry" />
        </mxCell>
        <mxCell id="GLs9wwnoJWoWIzgxKCds-3" value="" style="whiteSpace=wrap;html=1;aspect=fixed;fillColor=#CCCCCC;" vertex="1" parent="1">
          <mxGeometry x="580" y="200" width="40" height="40" as="geometry" />
        </mxCell>
        <mxCell id="GLs9wwnoJWoWIzgxKCds-431" style="edgeStyle=orthogonalEdgeStyle;rounded=0;orthogonalLoop=1;jettySize=auto;html=1;exitX=1;exitY=0.5;exitDx=0;exitDy=0;entryX=0.5;entryY=0;entryDx=0;entryDy=0;fontSize=20;" edge="1" parent="1" source="GLs9wwnoJWoWIzgxKCds-4" target="GLs9wwnoJWoWIzgxKCds-340">
          <mxGeometry relative="1" as="geometry" />
        </mxCell>
        <mxCell id="GLs9wwnoJWoWIzgxKCds-4" value="" style="triangle;whiteSpace=wrap;html=1;direction=south;" vertex="1" parent="1">
          <mxGeometry x="700" y="200" width="40" height="40" as="geometry" />
        </mxCell>
        <mxCell id="GLs9wwnoJWoWIzgxKCds-230" style="edgeStyle=orthogonalEdgeStyle;rounded=0;orthogonalLoop=1;jettySize=auto;html=1;exitX=0.5;exitY=1;exitDx=0;exitDy=0;fontSize=20;" edge="1" parent="1" source="GLs9wwnoJWoWIzgxKCds-6" target="GLs9wwnoJWoWIzgxKCds-110">
          <mxGeometry relative="1" as="geometry" />
        </mxCell>
        <mxCell id="GLs9wwnoJWoWIzgxKCds-6" value="" style="whiteSpace=wrap;html=1;aspect=fixed;fillColor=#333333;" vertex="1" parent="1">
          <mxGeometry x="340" y="200" width="40" height="40" as="geometry" />
        </mxCell>
        <mxCell id="GLs9wwnoJWoWIzgxKCds-162" style="edgeStyle=orthogonalEdgeStyle;rounded=0;orthogonalLoop=1;jettySize=auto;html=1;exitX=0.5;exitY=1;exitDx=0;exitDy=0;entryX=0.5;entryY=0;entryDx=0;entryDy=0;fontSize=20;" edge="1" parent="1" source="GLs9wwnoJWoWIzgxKCds-12" target="GLs9wwnoJWoWIzgxKCds-3">
          <mxGeometry relative="1" as="geometry" />
        </mxCell>
        <mxCell id="GLs9wwnoJWoWIzgxKCds-12" value="1" style="rounded=0;whiteSpace=wrap;html=1;fontSize=20;" vertex="1" parent="1">
          <mxGeometry x="560" y="80" width="80" height="40" as="geometry" />
        </mxCell>
        <mxCell id="GLs9wwnoJWoWIzgxKCds-13" value="2" style="rounded=0;whiteSpace=wrap;html=1;fontSize=20;" vertex="1" parent="1">
          <mxGeometry x="440" y="80" width="80" height="40" as="geometry" />
        </mxCell>
        <mxCell id="GLs9wwnoJWoWIzgxKCds-14" value="3" style="rounded=0;whiteSpace=wrap;html=1;fontSize=20;" vertex="1" parent="1">
          <mxGeometry x="320" y="80" width="80" height="40" as="geometry" />
        </mxCell>
        <mxCell id="GLs9wwnoJWoWIzgxKCds-15" value="4" style="rounded=0;whiteSpace=wrap;html=1;fontSize=20;" vertex="1" parent="1">
          <mxGeometry x="200" y="80" width="80" height="40" as="geometry" />
        </mxCell>
        <mxCell id="GLs9wwnoJWoWIzgxKCds-16" value="5" style="rounded=0;whiteSpace=wrap;html=1;fontSize=20;" vertex="1" parent="1">
          <mxGeometry x="80" y="80" width="80" height="40" as="geometry" />
        </mxCell>
        <mxCell id="GLs9wwnoJWoWIzgxKCds-17" value="6" style="rounded=0;whiteSpace=wrap;html=1;fontSize=20;" vertex="1" parent="1">
          <mxGeometry x="-40" y="80" width="80" height="40" as="geometry" />
        </mxCell>
        <mxCell id="GLs9wwnoJWoWIzgxKCds-18" value="7" style="rounded=0;whiteSpace=wrap;html=1;fontSize=20;" vertex="1" parent="1">
          <mxGeometry x="-160" y="80" width="80" height="40" as="geometry" />
        </mxCell>
        <mxCell id="GLs9wwnoJWoWIzgxKCds-19" value="8" style="rounded=0;whiteSpace=wrap;html=1;fontSize=20;" vertex="1" parent="1">
          <mxGeometry x="-280" y="80" width="80" height="40" as="geometry" />
        </mxCell>
        <mxCell id="GLs9wwnoJWoWIzgxKCds-20" value="9" style="rounded=0;whiteSpace=wrap;html=1;fontSize=20;" vertex="1" parent="1">
          <mxGeometry x="-400" y="80" width="80" height="40" as="geometry" />
        </mxCell>
        <mxCell id="GLs9wwnoJWoWIzgxKCds-21" value="10" style="rounded=0;whiteSpace=wrap;html=1;fontSize=20;" vertex="1" parent="1">
          <mxGeometry x="-520" y="80" width="80" height="40" as="geometry" />
        </mxCell>
        <mxCell id="GLs9wwnoJWoWIzgxKCds-22" value="11" style="rounded=0;whiteSpace=wrap;html=1;fontSize=20;" vertex="1" parent="1">
          <mxGeometry x="-640" y="80" width="80" height="40" as="geometry" />
        </mxCell>
        <mxCell id="GLs9wwnoJWoWIzgxKCds-23" value="12" style="rounded=0;whiteSpace=wrap;html=1;fontSize=20;" vertex="1" parent="1">
          <mxGeometry x="-760" y="80" width="80" height="40" as="geometry" />
        </mxCell>
        <mxCell id="GLs9wwnoJWoWIzgxKCds-24" value="13" style="rounded=0;whiteSpace=wrap;html=1;fontSize=20;" vertex="1" parent="1">
          <mxGeometry x="-880" y="80" width="80" height="40" as="geometry" />
        </mxCell>
        <mxCell id="GLs9wwnoJWoWIzgxKCds-25" value="14" style="rounded=0;whiteSpace=wrap;html=1;fontSize=20;" vertex="1" parent="1">
          <mxGeometry x="-1000" y="80" width="80" height="40" as="geometry" />
        </mxCell>
        <mxCell id="GLs9wwnoJWoWIzgxKCds-26" value="15" style="rounded=0;whiteSpace=wrap;html=1;fontSize=20;" vertex="1" parent="1">
          <mxGeometry x="-1120" y="80" width="80" height="40" as="geometry" />
        </mxCell>
        <mxCell id="GLs9wwnoJWoWIzgxKCds-27" value="16" style="rounded=0;whiteSpace=wrap;html=1;fontSize=20;" vertex="1" parent="1">
          <mxGeometry x="-1240" y="80" width="80" height="40" as="geometry" />
        </mxCell>
        <mxCell id="GLs9wwnoJWoWIzgxKCds-28" value="17" style="rounded=0;whiteSpace=wrap;html=1;fontSize=20;" vertex="1" parent="1">
          <mxGeometry x="-1360" y="80" width="80" height="40" as="geometry" />
        </mxCell>
        <mxCell id="GLs9wwnoJWoWIzgxKCds-29" value="18" style="rounded=0;whiteSpace=wrap;html=1;fontSize=20;" vertex="1" parent="1">
          <mxGeometry x="-1480" y="80" width="80" height="40" as="geometry" />
        </mxCell>
        <mxCell id="GLs9wwnoJWoWIzgxKCds-30" value="19" style="rounded=0;whiteSpace=wrap;html=1;fontSize=20;" vertex="1" parent="1">
          <mxGeometry x="-1600" y="80" width="80" height="40" as="geometry" />
        </mxCell>
        <mxCell id="GLs9wwnoJWoWIzgxKCds-31" value="20" style="rounded=0;whiteSpace=wrap;html=1;fontSize=20;" vertex="1" parent="1">
          <mxGeometry x="-1720" y="80" width="80" height="40" as="geometry" />
        </mxCell>
        <mxCell id="GLs9wwnoJWoWIzgxKCds-32" value="21" style="rounded=0;whiteSpace=wrap;html=1;fontSize=20;" vertex="1" parent="1">
          <mxGeometry x="-1840" y="80" width="80" height="40" as="geometry" />
        </mxCell>
        <mxCell id="GLs9wwnoJWoWIzgxKCds-33" value="22" style="rounded=0;whiteSpace=wrap;html=1;fontSize=20;" vertex="1" parent="1">
          <mxGeometry x="-1960" y="80" width="80" height="40" as="geometry" />
        </mxCell>
        <mxCell id="GLs9wwnoJWoWIzgxKCds-34" value="23" style="rounded=0;whiteSpace=wrap;html=1;fontSize=20;" vertex="1" parent="1">
          <mxGeometry x="-2080" y="80" width="80" height="40" as="geometry" />
        </mxCell>
        <mxCell id="GLs9wwnoJWoWIzgxKCds-35" value="24" style="rounded=0;whiteSpace=wrap;html=1;fontSize=20;" vertex="1" parent="1">
          <mxGeometry x="-2200" y="80" width="80" height="40" as="geometry" />
        </mxCell>
        <mxCell id="GLs9wwnoJWoWIzgxKCds-36" value="25" style="rounded=0;whiteSpace=wrap;html=1;fontSize=20;" vertex="1" parent="1">
          <mxGeometry x="-2320" y="80" width="80" height="40" as="geometry" />
        </mxCell>
        <mxCell id="GLs9wwnoJWoWIzgxKCds-37" value="26" style="rounded=0;whiteSpace=wrap;html=1;fontSize=20;" vertex="1" parent="1">
          <mxGeometry x="-2440" y="80" width="80" height="40" as="geometry" />
        </mxCell>
        <mxCell id="GLs9wwnoJWoWIzgxKCds-38" value="27" style="rounded=0;whiteSpace=wrap;html=1;fontSize=20;" vertex="1" parent="1">
          <mxGeometry x="-2560" y="80" width="80" height="40" as="geometry" />
        </mxCell>
        <mxCell id="GLs9wwnoJWoWIzgxKCds-39" value="28" style="rounded=0;whiteSpace=wrap;html=1;fontSize=20;" vertex="1" parent="1">
          <mxGeometry x="-2680" y="80" width="80" height="40" as="geometry" />
        </mxCell>
        <mxCell id="GLs9wwnoJWoWIzgxKCds-40" value="29" style="rounded=0;whiteSpace=wrap;html=1;fontSize=20;" vertex="1" parent="1">
          <mxGeometry x="-2800" y="80" width="80" height="40" as="geometry" />
        </mxCell>
        <mxCell id="GLs9wwnoJWoWIzgxKCds-41" value="30" style="rounded=0;whiteSpace=wrap;html=1;fontSize=20;" vertex="1" parent="1">
          <mxGeometry x="-2920" y="80" width="80" height="40" as="geometry" />
        </mxCell>
        <mxCell id="GLs9wwnoJWoWIzgxKCds-42" value="31" style="rounded=0;whiteSpace=wrap;html=1;fontSize=20;" vertex="1" parent="1">
          <mxGeometry x="-3040" y="80" width="80" height="40" as="geometry" />
        </mxCell>
        <mxCell id="GLs9wwnoJWoWIzgxKCds-433" style="edgeStyle=orthogonalEdgeStyle;rounded=0;orthogonalLoop=1;jettySize=auto;html=1;exitX=1;exitY=0.5;exitDx=0;exitDy=0;entryX=0.5;entryY=0;entryDx=0;entryDy=0;fontSize=20;" edge="1" parent="1" source="GLs9wwnoJWoWIzgxKCds-76" target="GLs9wwnoJWoWIzgxKCds-430">
          <mxGeometry relative="1" as="geometry" />
        </mxCell>
        <mxCell id="GLs9wwnoJWoWIzgxKCds-76" value="" style="triangle;whiteSpace=wrap;html=1;direction=south;" vertex="1" parent="1">
          <mxGeometry x="460" y="200" width="40" height="40" as="geometry" />
        </mxCell>
        <mxCell id="GLs9wwnoJWoWIzgxKCds-77" value="" style="whiteSpace=wrap;html=1;aspect=fixed;fillColor=#333333;" vertex="1" parent="1">
          <mxGeometry x="100" y="200" width="40" height="40" as="geometry" />
        </mxCell>
        <mxCell id="GLs9wwnoJWoWIzgxKCds-436" style="edgeStyle=orthogonalEdgeStyle;rounded=0;orthogonalLoop=1;jettySize=auto;html=1;exitX=1;exitY=0.5;exitDx=0;exitDy=0;entryX=0.5;entryY=0;entryDx=0;entryDy=0;fontSize=20;" edge="1" parent="1" source="GLs9wwnoJWoWIzgxKCds-78" target="GLs9wwnoJWoWIzgxKCds-428">
          <mxGeometry relative="1" as="geometry" />
        </mxCell>
        <mxCell id="GLs9wwnoJWoWIzgxKCds-78" value="" style="triangle;whiteSpace=wrap;html=1;direction=south;" vertex="1" parent="1">
          <mxGeometry x="220" y="200" width="40" height="40" as="geometry" />
        </mxCell>
        <mxCell id="GLs9wwnoJWoWIzgxKCds-79" value="" style="whiteSpace=wrap;html=1;aspect=fixed;fillColor=#333333;" vertex="1" parent="1">
          <mxGeometry x="-140" y="200" width="40" height="40" as="geometry" />
        </mxCell>
        <mxCell id="GLs9wwnoJWoWIzgxKCds-441" style="edgeStyle=orthogonalEdgeStyle;rounded=0;orthogonalLoop=1;jettySize=auto;html=1;exitX=1;exitY=0.5;exitDx=0;exitDy=0;entryX=0.5;entryY=0;entryDx=0;entryDy=0;fontSize=20;" edge="1" parent="1" source="GLs9wwnoJWoWIzgxKCds-80" target="GLs9wwnoJWoWIzgxKCds-427">
          <mxGeometry relative="1" as="geometry" />
        </mxCell>
        <mxCell id="GLs9wwnoJWoWIzgxKCds-80" value="" style="triangle;whiteSpace=wrap;html=1;direction=south;" vertex="1" parent="1">
          <mxGeometry x="-20" y="200" width="40" height="40" as="geometry" />
        </mxCell>
        <mxCell id="GLs9wwnoJWoWIzgxKCds-81" value="" style="whiteSpace=wrap;html=1;aspect=fixed;fillColor=#333333;" vertex="1" parent="1">
          <mxGeometry x="-380" y="200" width="40" height="40" as="geometry" />
        </mxCell>
        <mxCell id="GLs9wwnoJWoWIzgxKCds-444" style="edgeStyle=orthogonalEdgeStyle;rounded=0;orthogonalLoop=1;jettySize=auto;html=1;exitX=1;exitY=0.5;exitDx=0;exitDy=0;entryX=0.5;entryY=0;entryDx=0;entryDy=0;fontSize=20;" edge="1" parent="1" source="GLs9wwnoJWoWIzgxKCds-82" target="GLs9wwnoJWoWIzgxKCds-424">
          <mxGeometry relative="1" as="geometry" />
        </mxCell>
        <mxCell id="GLs9wwnoJWoWIzgxKCds-82" value="" style="triangle;whiteSpace=wrap;html=1;direction=south;" vertex="1" parent="1">
          <mxGeometry x="-260" y="200" width="40" height="40" as="geometry" />
        </mxCell>
        <mxCell id="GLs9wwnoJWoWIzgxKCds-83" value="" style="whiteSpace=wrap;html=1;aspect=fixed;fillColor=#333333;" vertex="1" parent="1">
          <mxGeometry x="-620" y="200" width="40" height="40" as="geometry" />
        </mxCell>
        <mxCell id="GLs9wwnoJWoWIzgxKCds-450" style="edgeStyle=orthogonalEdgeStyle;rounded=0;orthogonalLoop=1;jettySize=auto;html=1;exitX=1;exitY=0.5;exitDx=0;exitDy=0;entryX=0.5;entryY=0;entryDx=0;entryDy=0;fontSize=20;" edge="1" parent="1" source="GLs9wwnoJWoWIzgxKCds-84" target="GLs9wwnoJWoWIzgxKCds-423">
          <mxGeometry relative="1" as="geometry" />
        </mxCell>
        <mxCell id="GLs9wwnoJWoWIzgxKCds-84" value="" style="triangle;whiteSpace=wrap;html=1;direction=south;" vertex="1" parent="1">
          <mxGeometry x="-500" y="200" width="40" height="40" as="geometry" />
        </mxCell>
        <mxCell id="GLs9wwnoJWoWIzgxKCds-85" value="" style="whiteSpace=wrap;html=1;aspect=fixed;fillColor=#333333;" vertex="1" parent="1">
          <mxGeometry x="-860" y="200" width="40" height="40" as="geometry" />
        </mxCell>
        <mxCell id="GLs9wwnoJWoWIzgxKCds-455" style="edgeStyle=orthogonalEdgeStyle;rounded=0;orthogonalLoop=1;jettySize=auto;html=1;exitX=1;exitY=0.5;exitDx=0;exitDy=0;entryX=0.5;entryY=0;entryDx=0;entryDy=0;fontSize=20;" edge="1" parent="1" source="GLs9wwnoJWoWIzgxKCds-86" target="GLs9wwnoJWoWIzgxKCds-417">
          <mxGeometry relative="1" as="geometry" />
        </mxCell>
        <mxCell id="GLs9wwnoJWoWIzgxKCds-86" value="" style="triangle;whiteSpace=wrap;html=1;direction=south;" vertex="1" parent="1">
          <mxGeometry x="-740" y="200" width="40" height="40" as="geometry" />
        </mxCell>
        <mxCell id="GLs9wwnoJWoWIzgxKCds-87" value="" style="whiteSpace=wrap;html=1;aspect=fixed;fillColor=#333333;" vertex="1" parent="1">
          <mxGeometry x="-1100" y="200" width="40" height="40" as="geometry" />
        </mxCell>
        <mxCell id="GLs9wwnoJWoWIzgxKCds-460" style="edgeStyle=orthogonalEdgeStyle;rounded=0;orthogonalLoop=1;jettySize=auto;html=1;exitX=1;exitY=0.5;exitDx=0;exitDy=0;entryX=0.5;entryY=0;entryDx=0;entryDy=0;fontSize=20;" edge="1" parent="1" source="GLs9wwnoJWoWIzgxKCds-88" target="GLs9wwnoJWoWIzgxKCds-415">
          <mxGeometry relative="1" as="geometry" />
        </mxCell>
        <mxCell id="GLs9wwnoJWoWIzgxKCds-88" value="" style="triangle;whiteSpace=wrap;html=1;direction=south;" vertex="1" parent="1">
          <mxGeometry x="-980" y="200" width="40" height="40" as="geometry" />
        </mxCell>
        <mxCell id="GLs9wwnoJWoWIzgxKCds-89" value="" style="whiteSpace=wrap;html=1;aspect=fixed;fillColor=#333333;" vertex="1" parent="1">
          <mxGeometry x="-1340" y="200" width="40" height="40" as="geometry" />
        </mxCell>
        <mxCell id="GLs9wwnoJWoWIzgxKCds-325" style="edgeStyle=orthogonalEdgeStyle;rounded=0;orthogonalLoop=1;jettySize=auto;html=1;exitX=1;exitY=0.5;exitDx=0;exitDy=0;entryX=0.5;entryY=0;entryDx=0;entryDy=0;fontSize=20;" edge="1" parent="1" source="GLs9wwnoJWoWIzgxKCds-90" target="GLs9wwnoJWoWIzgxKCds-322">
          <mxGeometry relative="1" as="geometry" />
        </mxCell>
        <mxCell id="GLs9wwnoJWoWIzgxKCds-90" value="" style="triangle;whiteSpace=wrap;html=1;direction=south;" vertex="1" parent="1">
          <mxGeometry x="-1220" y="200" width="40" height="40" as="geometry" />
        </mxCell>
        <mxCell id="GLs9wwnoJWoWIzgxKCds-91" value="" style="whiteSpace=wrap;html=1;aspect=fixed;fillColor=#333333;" vertex="1" parent="1">
          <mxGeometry x="-1580" y="200" width="40" height="40" as="geometry" />
        </mxCell>
        <mxCell id="GLs9wwnoJWoWIzgxKCds-329" style="edgeStyle=orthogonalEdgeStyle;rounded=0;orthogonalLoop=1;jettySize=auto;html=1;exitX=1;exitY=0.5;exitDx=0;exitDy=0;entryX=0.5;entryY=0;entryDx=0;entryDy=0;fontSize=20;" edge="1" parent="1" source="GLs9wwnoJWoWIzgxKCds-92" target="GLs9wwnoJWoWIzgxKCds-321">
          <mxGeometry relative="1" as="geometry" />
        </mxCell>
        <mxCell id="GLs9wwnoJWoWIzgxKCds-92" value="" style="triangle;whiteSpace=wrap;html=1;direction=south;" vertex="1" parent="1">
          <mxGeometry x="-1460" y="200" width="40" height="40" as="geometry" />
        </mxCell>
        <mxCell id="GLs9wwnoJWoWIzgxKCds-93" value="" style="whiteSpace=wrap;html=1;aspect=fixed;fillColor=#333333;" vertex="1" parent="1">
          <mxGeometry x="-1820" y="200" width="40" height="40" as="geometry" />
        </mxCell>
        <mxCell id="GLs9wwnoJWoWIzgxKCds-331" style="edgeStyle=orthogonalEdgeStyle;rounded=0;orthogonalLoop=1;jettySize=auto;html=1;exitX=1;exitY=0.5;exitDx=0;exitDy=0;fontSize=20;" edge="1" parent="1" source="GLs9wwnoJWoWIzgxKCds-94" target="GLs9wwnoJWoWIzgxKCds-319">
          <mxGeometry relative="1" as="geometry" />
        </mxCell>
        <mxCell id="GLs9wwnoJWoWIzgxKCds-94" value="" style="triangle;whiteSpace=wrap;html=1;direction=south;" vertex="1" parent="1">
          <mxGeometry x="-1700" y="200" width="40" height="40" as="geometry" />
        </mxCell>
        <mxCell id="GLs9wwnoJWoWIzgxKCds-95" value="" style="whiteSpace=wrap;html=1;aspect=fixed;fillColor=#333333;" vertex="1" parent="1">
          <mxGeometry x="-2060" y="200" width="40" height="40" as="geometry" />
        </mxCell>
        <mxCell id="GLs9wwnoJWoWIzgxKCds-332" style="edgeStyle=orthogonalEdgeStyle;rounded=0;orthogonalLoop=1;jettySize=auto;html=1;exitX=1;exitY=0.5;exitDx=0;exitDy=0;entryX=0.5;entryY=0;entryDx=0;entryDy=0;fontSize=20;" edge="1" parent="1" source="GLs9wwnoJWoWIzgxKCds-96" target="GLs9wwnoJWoWIzgxKCds-318">
          <mxGeometry relative="1" as="geometry" />
        </mxCell>
        <mxCell id="GLs9wwnoJWoWIzgxKCds-96" value="" style="triangle;whiteSpace=wrap;html=1;direction=south;" vertex="1" parent="1">
          <mxGeometry x="-1940" y="200" width="40" height="40" as="geometry" />
        </mxCell>
        <mxCell id="GLs9wwnoJWoWIzgxKCds-97" value="" style="whiteSpace=wrap;html=1;aspect=fixed;fillColor=#333333;" vertex="1" parent="1">
          <mxGeometry x="-2300" y="200" width="40" height="40" as="geometry" />
        </mxCell>
        <mxCell id="GLs9wwnoJWoWIzgxKCds-333" style="edgeStyle=orthogonalEdgeStyle;rounded=0;orthogonalLoop=1;jettySize=auto;html=1;exitX=1;exitY=0.5;exitDx=0;exitDy=0;entryX=0.5;entryY=0;entryDx=0;entryDy=0;fontSize=20;" edge="1" parent="1" source="GLs9wwnoJWoWIzgxKCds-98" target="GLs9wwnoJWoWIzgxKCds-316">
          <mxGeometry relative="1" as="geometry" />
        </mxCell>
        <mxCell id="GLs9wwnoJWoWIzgxKCds-98" value="" style="triangle;whiteSpace=wrap;html=1;direction=south;" vertex="1" parent="1">
          <mxGeometry x="-2180" y="200" width="40" height="40" as="geometry" />
        </mxCell>
        <mxCell id="GLs9wwnoJWoWIzgxKCds-99" value="" style="whiteSpace=wrap;html=1;aspect=fixed;fillColor=#333333;" vertex="1" parent="1">
          <mxGeometry x="-2540" y="200" width="40" height="40" as="geometry" />
        </mxCell>
        <mxCell id="GLs9wwnoJWoWIzgxKCds-335" style="edgeStyle=orthogonalEdgeStyle;rounded=0;orthogonalLoop=1;jettySize=auto;html=1;exitX=1;exitY=0.5;exitDx=0;exitDy=0;entryX=0.5;entryY=0;entryDx=0;entryDy=0;fontSize=20;" edge="1" parent="1" source="GLs9wwnoJWoWIzgxKCds-100" target="GLs9wwnoJWoWIzgxKCds-315">
          <mxGeometry relative="1" as="geometry" />
        </mxCell>
        <mxCell id="GLs9wwnoJWoWIzgxKCds-100" value="" style="triangle;whiteSpace=wrap;html=1;direction=south;" vertex="1" parent="1">
          <mxGeometry x="-2420" y="200" width="40" height="40" as="geometry" />
        </mxCell>
        <mxCell id="GLs9wwnoJWoWIzgxKCds-101" value="" style="whiteSpace=wrap;html=1;aspect=fixed;fillColor=#333333;" vertex="1" parent="1">
          <mxGeometry x="-2780" y="200" width="40" height="40" as="geometry" />
        </mxCell>
        <mxCell id="GLs9wwnoJWoWIzgxKCds-337" style="edgeStyle=orthogonalEdgeStyle;rounded=0;orthogonalLoop=1;jettySize=auto;html=1;exitX=1;exitY=0.5;exitDx=0;exitDy=0;entryX=0.5;entryY=0;entryDx=0;entryDy=0;fontSize=20;" edge="1" parent="1" source="GLs9wwnoJWoWIzgxKCds-102" target="GLs9wwnoJWoWIzgxKCds-314">
          <mxGeometry relative="1" as="geometry" />
        </mxCell>
        <mxCell id="GLs9wwnoJWoWIzgxKCds-102" value="" style="triangle;whiteSpace=wrap;html=1;direction=south;" vertex="1" parent="1">
          <mxGeometry x="-2660" y="200" width="40" height="40" as="geometry" />
        </mxCell>
        <mxCell id="GLs9wwnoJWoWIzgxKCds-103" value="" style="whiteSpace=wrap;html=1;aspect=fixed;fillColor=#333333;" vertex="1" parent="1">
          <mxGeometry x="-3020" y="200" width="40" height="40" as="geometry" />
        </mxCell>
        <mxCell id="GLs9wwnoJWoWIzgxKCds-339" style="edgeStyle=orthogonalEdgeStyle;rounded=0;orthogonalLoop=1;jettySize=auto;html=1;exitX=1;exitY=0.5;exitDx=0;exitDy=0;entryX=0.5;entryY=0;entryDx=0;entryDy=0;fontSize=20;" edge="1" parent="1" source="GLs9wwnoJWoWIzgxKCds-104" target="GLs9wwnoJWoWIzgxKCds-313">
          <mxGeometry relative="1" as="geometry" />
        </mxCell>
        <mxCell id="GLs9wwnoJWoWIzgxKCds-104" value="" style="triangle;whiteSpace=wrap;html=1;direction=south;" vertex="1" parent="1">
          <mxGeometry x="-2900" y="200" width="40" height="40" as="geometry" />
        </mxCell>
        <mxCell id="GLs9wwnoJWoWIzgxKCds-432" style="edgeStyle=orthogonalEdgeStyle;rounded=0;orthogonalLoop=1;jettySize=auto;html=1;exitX=1;exitY=0.5;exitDx=0;exitDy=0;entryX=0.5;entryY=0;entryDx=0;entryDy=0;fontSize=20;" edge="1" parent="1" source="GLs9wwnoJWoWIzgxKCds-109" target="GLs9wwnoJWoWIzgxKCds-341">
          <mxGeometry relative="1" as="geometry" />
        </mxCell>
        <mxCell id="GLs9wwnoJWoWIzgxKCds-109" value="" style="triangle;whiteSpace=wrap;html=1;direction=south;" vertex="1" parent="1">
          <mxGeometry x="580" y="320" width="40" height="40" as="geometry" />
        </mxCell>
        <mxCell id="GLs9wwnoJWoWIzgxKCds-260" style="edgeStyle=orthogonalEdgeStyle;rounded=0;orthogonalLoop=1;jettySize=auto;html=1;exitX=0.5;exitY=1;exitDx=0;exitDy=0;entryX=0;entryY=0.5;entryDx=0;entryDy=0;fontSize=20;" edge="1" parent="1" source="GLs9wwnoJWoWIzgxKCds-110" target="GLs9wwnoJWoWIzgxKCds-221">
          <mxGeometry relative="1" as="geometry" />
        </mxCell>
        <mxCell id="GLs9wwnoJWoWIzgxKCds-110" value="" style="whiteSpace=wrap;html=1;aspect=fixed;fillColor=#CCCCCC;" vertex="1" parent="1">
          <mxGeometry x="340" y="320" width="40" height="40" as="geometry" />
        </mxCell>
        <mxCell id="GLs9wwnoJWoWIzgxKCds-438" style="edgeStyle=orthogonalEdgeStyle;rounded=0;orthogonalLoop=1;jettySize=auto;html=1;exitX=1;exitY=0.5;exitDx=0;exitDy=0;entryX=0.5;entryY=0;entryDx=0;entryDy=0;fontSize=20;" edge="1" parent="1" source="GLs9wwnoJWoWIzgxKCds-111" target="GLs9wwnoJWoWIzgxKCds-426">
          <mxGeometry relative="1" as="geometry" />
        </mxCell>
        <mxCell id="GLs9wwnoJWoWIzgxKCds-111" value="" style="triangle;whiteSpace=wrap;html=1;direction=south;" vertex="1" parent="1">
          <mxGeometry x="100" y="320" width="40" height="40" as="geometry" />
        </mxCell>
        <mxCell id="GLs9wwnoJWoWIzgxKCds-259" style="edgeStyle=orthogonalEdgeStyle;rounded=0;orthogonalLoop=1;jettySize=auto;html=1;exitX=0.5;exitY=1;exitDx=0;exitDy=0;entryX=0.5;entryY=0;entryDx=0;entryDy=0;fontSize=20;" edge="1" parent="1" source="GLs9wwnoJWoWIzgxKCds-112" target="GLs9wwnoJWoWIzgxKCds-222">
          <mxGeometry relative="1" as="geometry" />
        </mxCell>
        <mxCell id="GLs9wwnoJWoWIzgxKCds-112" value="" style="whiteSpace=wrap;html=1;aspect=fixed;fillColor=#333333;" vertex="1" parent="1">
          <mxGeometry x="-140" y="320" width="40" height="40" as="geometry" />
        </mxCell>
        <mxCell id="GLs9wwnoJWoWIzgxKCds-163" value="" style="endArrow=classic;html=1;fontSize=20;entryX=1;entryY=0;entryDx=0;entryDy=0;" edge="1" parent="1" target="GLs9wwnoJWoWIzgxKCds-3">
          <mxGeometry width="50" height="50" relative="1" as="geometry">
            <mxPoint x="720" y="160" as="sourcePoint" />
            <mxPoint x="700" y="250" as="targetPoint" />
            <Array as="points">
              <mxPoint x="660" y="160" />
            </Array>
          </mxGeometry>
        </mxCell>
        <mxCell id="GLs9wwnoJWoWIzgxKCds-164" style="edgeStyle=orthogonalEdgeStyle;rounded=0;orthogonalLoop=1;jettySize=auto;html=1;exitX=0.5;exitY=1;exitDx=0;exitDy=0;entryX=0;entryY=0.5;entryDx=0;entryDy=0;fontSize=20;" edge="1" parent="1">
          <mxGeometry relative="1" as="geometry">
            <mxPoint x="480" y="120" as="sourcePoint" />
            <mxPoint x="480" y="200" as="targetPoint" />
          </mxGeometry>
        </mxCell>
        <mxCell id="GLs9wwnoJWoWIzgxKCds-165" style="edgeStyle=orthogonalEdgeStyle;rounded=0;orthogonalLoop=1;jettySize=auto;html=1;exitX=0.5;exitY=1;exitDx=0;exitDy=0;entryX=0.5;entryY=0;entryDx=0;entryDy=0;fontSize=20;" edge="1" parent="1">
          <mxGeometry relative="1" as="geometry">
            <mxPoint x="360" y="120" as="sourcePoint" />
            <mxPoint x="360" y="200" as="targetPoint" />
          </mxGeometry>
        </mxCell>
        <mxCell id="GLs9wwnoJWoWIzgxKCds-166" value="" style="endArrow=classic;html=1;fontSize=20;entryX=1;entryY=0;entryDx=0;entryDy=0;" edge="1" parent="1">
          <mxGeometry width="50" height="50" relative="1" as="geometry">
            <mxPoint x="480" y="160" as="sourcePoint" />
            <mxPoint x="380" y="200" as="targetPoint" />
            <Array as="points">
              <mxPoint x="420" y="160" />
            </Array>
          </mxGeometry>
        </mxCell>
        <mxCell id="GLs9wwnoJWoWIzgxKCds-167" style="edgeStyle=orthogonalEdgeStyle;rounded=0;orthogonalLoop=1;jettySize=auto;html=1;exitX=0.5;exitY=1;exitDx=0;exitDy=0;entryX=0;entryY=0.5;entryDx=0;entryDy=0;fontSize=20;" edge="1" parent="1">
          <mxGeometry relative="1" as="geometry">
            <mxPoint x="240" y="120" as="sourcePoint" />
            <mxPoint x="240" y="200" as="targetPoint" />
          </mxGeometry>
        </mxCell>
        <mxCell id="GLs9wwnoJWoWIzgxKCds-168" style="edgeStyle=orthogonalEdgeStyle;rounded=0;orthogonalLoop=1;jettySize=auto;html=1;exitX=0.5;exitY=1;exitDx=0;exitDy=0;entryX=0.5;entryY=0;entryDx=0;entryDy=0;fontSize=20;" edge="1" parent="1">
          <mxGeometry relative="1" as="geometry">
            <mxPoint x="120" y="120" as="sourcePoint" />
            <mxPoint x="120" y="200" as="targetPoint" />
          </mxGeometry>
        </mxCell>
        <mxCell id="GLs9wwnoJWoWIzgxKCds-169" value="" style="endArrow=classic;html=1;fontSize=20;entryX=1;entryY=0;entryDx=0;entryDy=0;" edge="1" parent="1">
          <mxGeometry width="50" height="50" relative="1" as="geometry">
            <mxPoint x="240" y="160" as="sourcePoint" />
            <mxPoint x="140" y="200" as="targetPoint" />
            <Array as="points">
              <mxPoint x="180" y="160" />
            </Array>
          </mxGeometry>
        </mxCell>
        <mxCell id="GLs9wwnoJWoWIzgxKCds-170" style="edgeStyle=orthogonalEdgeStyle;rounded=0;orthogonalLoop=1;jettySize=auto;html=1;exitX=0.5;exitY=1;exitDx=0;exitDy=0;entryX=0;entryY=0.5;entryDx=0;entryDy=0;fontSize=20;" edge="1" parent="1">
          <mxGeometry relative="1" as="geometry">
            <mxPoint y="120" as="sourcePoint" />
            <mxPoint y="200" as="targetPoint" />
          </mxGeometry>
        </mxCell>
        <mxCell id="GLs9wwnoJWoWIzgxKCds-171" style="edgeStyle=orthogonalEdgeStyle;rounded=0;orthogonalLoop=1;jettySize=auto;html=1;exitX=0.5;exitY=1;exitDx=0;exitDy=0;entryX=0.5;entryY=0;entryDx=0;entryDy=0;fontSize=20;" edge="1" parent="1">
          <mxGeometry relative="1" as="geometry">
            <mxPoint x="-120.00000000000045" y="120" as="sourcePoint" />
            <mxPoint x="-120.00000000000045" y="200" as="targetPoint" />
          </mxGeometry>
        </mxCell>
        <mxCell id="GLs9wwnoJWoWIzgxKCds-172" value="" style="endArrow=classic;html=1;fontSize=20;entryX=1;entryY=0;entryDx=0;entryDy=0;" edge="1" parent="1">
          <mxGeometry width="50" height="50" relative="1" as="geometry">
            <mxPoint y="160" as="sourcePoint" />
            <mxPoint x="-100.00000000000045" y="200" as="targetPoint" />
            <Array as="points">
              <mxPoint x="-60" y="160" />
            </Array>
          </mxGeometry>
        </mxCell>
        <mxCell id="GLs9wwnoJWoWIzgxKCds-173" style="edgeStyle=orthogonalEdgeStyle;rounded=0;orthogonalLoop=1;jettySize=auto;html=1;exitX=0.5;exitY=1;exitDx=0;exitDy=0;entryX=0;entryY=0.5;entryDx=0;entryDy=0;fontSize=20;" edge="1" parent="1">
          <mxGeometry relative="1" as="geometry">
            <mxPoint x="-240" y="120" as="sourcePoint" />
            <mxPoint x="-240" y="200" as="targetPoint" />
          </mxGeometry>
        </mxCell>
        <mxCell id="GLs9wwnoJWoWIzgxKCds-174" style="edgeStyle=orthogonalEdgeStyle;rounded=0;orthogonalLoop=1;jettySize=auto;html=1;exitX=0.5;exitY=1;exitDx=0;exitDy=0;entryX=0.5;entryY=0;entryDx=0;entryDy=0;fontSize=20;" edge="1" parent="1">
          <mxGeometry relative="1" as="geometry">
            <mxPoint x="-360.00000000000045" y="120" as="sourcePoint" />
            <mxPoint x="-360.00000000000045" y="200" as="targetPoint" />
          </mxGeometry>
        </mxCell>
        <mxCell id="GLs9wwnoJWoWIzgxKCds-175" value="" style="endArrow=classic;html=1;fontSize=20;entryX=1;entryY=0;entryDx=0;entryDy=0;" edge="1" parent="1">
          <mxGeometry width="50" height="50" relative="1" as="geometry">
            <mxPoint x="-240" y="160" as="sourcePoint" />
            <mxPoint x="-340.00000000000045" y="200" as="targetPoint" />
            <Array as="points">
              <mxPoint x="-300" y="160" />
            </Array>
          </mxGeometry>
        </mxCell>
        <mxCell id="GLs9wwnoJWoWIzgxKCds-176" style="edgeStyle=orthogonalEdgeStyle;rounded=0;orthogonalLoop=1;jettySize=auto;html=1;exitX=0.5;exitY=1;exitDx=0;exitDy=0;entryX=0;entryY=0.5;entryDx=0;entryDy=0;fontSize=20;" edge="1" parent="1">
          <mxGeometry relative="1" as="geometry">
            <mxPoint x="-480" y="120" as="sourcePoint" />
            <mxPoint x="-480" y="200" as="targetPoint" />
          </mxGeometry>
        </mxCell>
        <mxCell id="GLs9wwnoJWoWIzgxKCds-177" style="edgeStyle=orthogonalEdgeStyle;rounded=0;orthogonalLoop=1;jettySize=auto;html=1;exitX=0.5;exitY=1;exitDx=0;exitDy=0;entryX=0.5;entryY=0;entryDx=0;entryDy=0;fontSize=20;" edge="1" parent="1">
          <mxGeometry relative="1" as="geometry">
            <mxPoint x="-600.0000000000005" y="120" as="sourcePoint" />
            <mxPoint x="-600.0000000000005" y="200" as="targetPoint" />
          </mxGeometry>
        </mxCell>
        <mxCell id="GLs9wwnoJWoWIzgxKCds-178" value="" style="endArrow=classic;html=1;fontSize=20;entryX=1;entryY=0;entryDx=0;entryDy=0;" edge="1" parent="1">
          <mxGeometry width="50" height="50" relative="1" as="geometry">
            <mxPoint x="-480" y="160" as="sourcePoint" />
            <mxPoint x="-580.0000000000005" y="200" as="targetPoint" />
            <Array as="points">
              <mxPoint x="-540" y="160" />
            </Array>
          </mxGeometry>
        </mxCell>
        <mxCell id="GLs9wwnoJWoWIzgxKCds-179" style="edgeStyle=orthogonalEdgeStyle;rounded=0;orthogonalLoop=1;jettySize=auto;html=1;exitX=0.5;exitY=1;exitDx=0;exitDy=0;entryX=0;entryY=0.5;entryDx=0;entryDy=0;fontSize=20;" edge="1" parent="1">
          <mxGeometry relative="1" as="geometry">
            <mxPoint x="-720" y="120" as="sourcePoint" />
            <mxPoint x="-720" y="200" as="targetPoint" />
          </mxGeometry>
        </mxCell>
        <mxCell id="GLs9wwnoJWoWIzgxKCds-180" style="edgeStyle=orthogonalEdgeStyle;rounded=0;orthogonalLoop=1;jettySize=auto;html=1;exitX=0.5;exitY=1;exitDx=0;exitDy=0;entryX=0.5;entryY=0;entryDx=0;entryDy=0;fontSize=20;" edge="1" parent="1">
          <mxGeometry relative="1" as="geometry">
            <mxPoint x="-840.0000000000005" y="120" as="sourcePoint" />
            <mxPoint x="-840.0000000000005" y="200" as="targetPoint" />
          </mxGeometry>
        </mxCell>
        <mxCell id="GLs9wwnoJWoWIzgxKCds-181" value="" style="endArrow=classic;html=1;fontSize=20;entryX=1;entryY=0;entryDx=0;entryDy=0;" edge="1" parent="1">
          <mxGeometry width="50" height="50" relative="1" as="geometry">
            <mxPoint x="-720" y="160" as="sourcePoint" />
            <mxPoint x="-820.0000000000005" y="200" as="targetPoint" />
            <Array as="points">
              <mxPoint x="-780" y="160" />
            </Array>
          </mxGeometry>
        </mxCell>
        <mxCell id="GLs9wwnoJWoWIzgxKCds-182" style="edgeStyle=orthogonalEdgeStyle;rounded=0;orthogonalLoop=1;jettySize=auto;html=1;exitX=0.5;exitY=1;exitDx=0;exitDy=0;entryX=0;entryY=0.5;entryDx=0;entryDy=0;fontSize=20;" edge="1" parent="1">
          <mxGeometry relative="1" as="geometry">
            <mxPoint x="-2160" y="120" as="sourcePoint" />
            <mxPoint x="-2160" y="200" as="targetPoint" />
          </mxGeometry>
        </mxCell>
        <mxCell id="GLs9wwnoJWoWIzgxKCds-183" style="edgeStyle=orthogonalEdgeStyle;rounded=0;orthogonalLoop=1;jettySize=auto;html=1;exitX=0.5;exitY=1;exitDx=0;exitDy=0;entryX=0.5;entryY=0;entryDx=0;entryDy=0;fontSize=20;" edge="1" parent="1">
          <mxGeometry relative="1" as="geometry">
            <mxPoint x="-2280" y="120" as="sourcePoint" />
            <mxPoint x="-2280" y="200" as="targetPoint" />
          </mxGeometry>
        </mxCell>
        <mxCell id="GLs9wwnoJWoWIzgxKCds-184" value="" style="endArrow=classic;html=1;fontSize=20;entryX=1;entryY=0;entryDx=0;entryDy=0;" edge="1" parent="1">
          <mxGeometry width="50" height="50" relative="1" as="geometry">
            <mxPoint x="-2160" y="160" as="sourcePoint" />
            <mxPoint x="-2260" y="200" as="targetPoint" />
            <Array as="points">
              <mxPoint x="-2220" y="160" />
            </Array>
          </mxGeometry>
        </mxCell>
        <mxCell id="GLs9wwnoJWoWIzgxKCds-185" style="edgeStyle=orthogonalEdgeStyle;rounded=0;orthogonalLoop=1;jettySize=auto;html=1;exitX=0.5;exitY=1;exitDx=0;exitDy=0;entryX=0;entryY=0.5;entryDx=0;entryDy=0;fontSize=20;" edge="1" parent="1">
          <mxGeometry relative="1" as="geometry">
            <mxPoint x="-2400" y="120" as="sourcePoint" />
            <mxPoint x="-2400" y="200" as="targetPoint" />
          </mxGeometry>
        </mxCell>
        <mxCell id="GLs9wwnoJWoWIzgxKCds-186" style="edgeStyle=orthogonalEdgeStyle;rounded=0;orthogonalLoop=1;jettySize=auto;html=1;exitX=0.5;exitY=1;exitDx=0;exitDy=0;entryX=0.5;entryY=0;entryDx=0;entryDy=0;fontSize=20;" edge="1" parent="1">
          <mxGeometry relative="1" as="geometry">
            <mxPoint x="-2520" y="120" as="sourcePoint" />
            <mxPoint x="-2520" y="200" as="targetPoint" />
          </mxGeometry>
        </mxCell>
        <mxCell id="GLs9wwnoJWoWIzgxKCds-187" value="" style="endArrow=classic;html=1;fontSize=20;entryX=1;entryY=0;entryDx=0;entryDy=0;" edge="1" parent="1">
          <mxGeometry width="50" height="50" relative="1" as="geometry">
            <mxPoint x="-2400" y="160" as="sourcePoint" />
            <mxPoint x="-2500" y="200" as="targetPoint" />
            <Array as="points">
              <mxPoint x="-2460" y="160" />
            </Array>
          </mxGeometry>
        </mxCell>
        <mxCell id="GLs9wwnoJWoWIzgxKCds-188" style="edgeStyle=orthogonalEdgeStyle;rounded=0;orthogonalLoop=1;jettySize=auto;html=1;exitX=0.5;exitY=1;exitDx=0;exitDy=0;entryX=0;entryY=0.5;entryDx=0;entryDy=0;fontSize=20;" edge="1" parent="1">
          <mxGeometry relative="1" as="geometry">
            <mxPoint x="-2640" y="120" as="sourcePoint" />
            <mxPoint x="-2640" y="200" as="targetPoint" />
          </mxGeometry>
        </mxCell>
        <mxCell id="GLs9wwnoJWoWIzgxKCds-189" style="edgeStyle=orthogonalEdgeStyle;rounded=0;orthogonalLoop=1;jettySize=auto;html=1;exitX=0.5;exitY=1;exitDx=0;exitDy=0;entryX=0.5;entryY=0;entryDx=0;entryDy=0;fontSize=20;" edge="1" parent="1">
          <mxGeometry relative="1" as="geometry">
            <mxPoint x="-2760" y="120" as="sourcePoint" />
            <mxPoint x="-2760" y="200" as="targetPoint" />
          </mxGeometry>
        </mxCell>
        <mxCell id="GLs9wwnoJWoWIzgxKCds-190" value="" style="endArrow=classic;html=1;fontSize=20;entryX=1;entryY=0;entryDx=0;entryDy=0;" edge="1" parent="1">
          <mxGeometry width="50" height="50" relative="1" as="geometry">
            <mxPoint x="-2640" y="160" as="sourcePoint" />
            <mxPoint x="-2740" y="200" as="targetPoint" />
            <Array as="points">
              <mxPoint x="-2700" y="160" />
            </Array>
          </mxGeometry>
        </mxCell>
        <mxCell id="GLs9wwnoJWoWIzgxKCds-191" style="edgeStyle=orthogonalEdgeStyle;rounded=0;orthogonalLoop=1;jettySize=auto;html=1;exitX=0.5;exitY=1;exitDx=0;exitDy=0;entryX=0;entryY=0.5;entryDx=0;entryDy=0;fontSize=20;" edge="1" parent="1">
          <mxGeometry relative="1" as="geometry">
            <mxPoint x="-2880" y="120" as="sourcePoint" />
            <mxPoint x="-2880" y="200" as="targetPoint" />
          </mxGeometry>
        </mxCell>
        <mxCell id="GLs9wwnoJWoWIzgxKCds-192" style="edgeStyle=orthogonalEdgeStyle;rounded=0;orthogonalLoop=1;jettySize=auto;html=1;exitX=0.5;exitY=1;exitDx=0;exitDy=0;entryX=0.5;entryY=0;entryDx=0;entryDy=0;fontSize=20;" edge="1" parent="1">
          <mxGeometry relative="1" as="geometry">
            <mxPoint x="-3000" y="120" as="sourcePoint" />
            <mxPoint x="-3000" y="200" as="targetPoint" />
          </mxGeometry>
        </mxCell>
        <mxCell id="GLs9wwnoJWoWIzgxKCds-193" value="" style="endArrow=classic;html=1;fontSize=20;entryX=1;entryY=0;entryDx=0;entryDy=0;" edge="1" parent="1">
          <mxGeometry width="50" height="50" relative="1" as="geometry">
            <mxPoint x="-2880" y="160" as="sourcePoint" />
            <mxPoint x="-2980" y="200" as="targetPoint" />
            <Array as="points">
              <mxPoint x="-2940" y="160" />
            </Array>
          </mxGeometry>
        </mxCell>
        <mxCell id="GLs9wwnoJWoWIzgxKCds-194" style="edgeStyle=orthogonalEdgeStyle;rounded=0;orthogonalLoop=1;jettySize=auto;html=1;exitX=0.5;exitY=1;exitDx=0;exitDy=0;entryX=0;entryY=0.5;entryDx=0;entryDy=0;fontSize=20;" edge="1" parent="1">
          <mxGeometry relative="1" as="geometry">
            <mxPoint x="-960" y="120.00000000000006" as="sourcePoint" />
            <mxPoint x="-960" y="200" as="targetPoint" />
          </mxGeometry>
        </mxCell>
        <mxCell id="GLs9wwnoJWoWIzgxKCds-195" style="edgeStyle=orthogonalEdgeStyle;rounded=0;orthogonalLoop=1;jettySize=auto;html=1;exitX=0.5;exitY=1;exitDx=0;exitDy=0;entryX=0.5;entryY=0;entryDx=0;entryDy=0;fontSize=20;" edge="1" parent="1">
          <mxGeometry relative="1" as="geometry">
            <mxPoint x="-1080.0000000000005" y="120.00000000000006" as="sourcePoint" />
            <mxPoint x="-1080.0000000000005" y="200" as="targetPoint" />
          </mxGeometry>
        </mxCell>
        <mxCell id="GLs9wwnoJWoWIzgxKCds-196" value="" style="endArrow=classic;html=1;fontSize=20;entryX=1;entryY=0;entryDx=0;entryDy=0;" edge="1" parent="1">
          <mxGeometry width="50" height="50" relative="1" as="geometry">
            <mxPoint x="-960" y="160" as="sourcePoint" />
            <mxPoint x="-1060.0000000000005" y="200" as="targetPoint" />
            <Array as="points">
              <mxPoint x="-1020" y="160" />
            </Array>
          </mxGeometry>
        </mxCell>
        <mxCell id="GLs9wwnoJWoWIzgxKCds-197" style="edgeStyle=orthogonalEdgeStyle;rounded=0;orthogonalLoop=1;jettySize=auto;html=1;exitX=0.5;exitY=1;exitDx=0;exitDy=0;entryX=0;entryY=0.5;entryDx=0;entryDy=0;fontSize=20;" edge="1" parent="1">
          <mxGeometry relative="1" as="geometry">
            <mxPoint x="-1200" y="120.00000000000006" as="sourcePoint" />
            <mxPoint x="-1200" y="200" as="targetPoint" />
          </mxGeometry>
        </mxCell>
        <mxCell id="GLs9wwnoJWoWIzgxKCds-198" style="edgeStyle=orthogonalEdgeStyle;rounded=0;orthogonalLoop=1;jettySize=auto;html=1;exitX=0.5;exitY=1;exitDx=0;exitDy=0;entryX=0.5;entryY=0;entryDx=0;entryDy=0;fontSize=20;" edge="1" parent="1">
          <mxGeometry relative="1" as="geometry">
            <mxPoint x="-1320.0000000000005" y="120.00000000000006" as="sourcePoint" />
            <mxPoint x="-1320.0000000000005" y="200" as="targetPoint" />
          </mxGeometry>
        </mxCell>
        <mxCell id="GLs9wwnoJWoWIzgxKCds-199" value="" style="endArrow=classic;html=1;fontSize=20;entryX=1;entryY=0;entryDx=0;entryDy=0;" edge="1" parent="1">
          <mxGeometry width="50" height="50" relative="1" as="geometry">
            <mxPoint x="-1200" y="160" as="sourcePoint" />
            <mxPoint x="-1300.0000000000005" y="200" as="targetPoint" />
            <Array as="points">
              <mxPoint x="-1260" y="160" />
            </Array>
          </mxGeometry>
        </mxCell>
        <mxCell id="GLs9wwnoJWoWIzgxKCds-200" style="edgeStyle=orthogonalEdgeStyle;rounded=0;orthogonalLoop=1;jettySize=auto;html=1;exitX=0.5;exitY=1;exitDx=0;exitDy=0;entryX=0;entryY=0.5;entryDx=0;entryDy=0;fontSize=20;" edge="1" parent="1">
          <mxGeometry relative="1" as="geometry">
            <mxPoint x="-1440" y="120.00000000000006" as="sourcePoint" />
            <mxPoint x="-1440" y="200" as="targetPoint" />
          </mxGeometry>
        </mxCell>
        <mxCell id="GLs9wwnoJWoWIzgxKCds-201" style="edgeStyle=orthogonalEdgeStyle;rounded=0;orthogonalLoop=1;jettySize=auto;html=1;exitX=0.5;exitY=1;exitDx=0;exitDy=0;entryX=0.5;entryY=0;entryDx=0;entryDy=0;fontSize=20;" edge="1" parent="1">
          <mxGeometry relative="1" as="geometry">
            <mxPoint x="-1560.0000000000005" y="120.00000000000006" as="sourcePoint" />
            <mxPoint x="-1560.0000000000005" y="200" as="targetPoint" />
          </mxGeometry>
        </mxCell>
        <mxCell id="GLs9wwnoJWoWIzgxKCds-202" value="" style="endArrow=classic;html=1;fontSize=20;entryX=1;entryY=0;entryDx=0;entryDy=0;" edge="1" parent="1">
          <mxGeometry width="50" height="50" relative="1" as="geometry">
            <mxPoint x="-1440" y="160" as="sourcePoint" />
            <mxPoint x="-1540.0000000000005" y="200" as="targetPoint" />
            <Array as="points">
              <mxPoint x="-1500" y="160" />
            </Array>
          </mxGeometry>
        </mxCell>
        <mxCell id="GLs9wwnoJWoWIzgxKCds-203" style="edgeStyle=orthogonalEdgeStyle;rounded=0;orthogonalLoop=1;jettySize=auto;html=1;exitX=0.5;exitY=1;exitDx=0;exitDy=0;entryX=0;entryY=0.5;entryDx=0;entryDy=0;fontSize=20;" edge="1" parent="1">
          <mxGeometry relative="1" as="geometry">
            <mxPoint x="-1680" y="120.00000000000006" as="sourcePoint" />
            <mxPoint x="-1680" y="200" as="targetPoint" />
          </mxGeometry>
        </mxCell>
        <mxCell id="GLs9wwnoJWoWIzgxKCds-204" style="edgeStyle=orthogonalEdgeStyle;rounded=0;orthogonalLoop=1;jettySize=auto;html=1;exitX=0.5;exitY=1;exitDx=0;exitDy=0;entryX=0.5;entryY=0;entryDx=0;entryDy=0;fontSize=20;" edge="1" parent="1">
          <mxGeometry relative="1" as="geometry">
            <mxPoint x="-1800.0000000000005" y="120.00000000000006" as="sourcePoint" />
            <mxPoint x="-1800.0000000000005" y="200" as="targetPoint" />
          </mxGeometry>
        </mxCell>
        <mxCell id="GLs9wwnoJWoWIzgxKCds-205" value="" style="endArrow=classic;html=1;fontSize=20;entryX=1;entryY=0;entryDx=0;entryDy=0;" edge="1" parent="1">
          <mxGeometry width="50" height="50" relative="1" as="geometry">
            <mxPoint x="-1680" y="160" as="sourcePoint" />
            <mxPoint x="-1780.0000000000005" y="200" as="targetPoint" />
            <Array as="points">
              <mxPoint x="-1740" y="160" />
            </Array>
          </mxGeometry>
        </mxCell>
        <mxCell id="GLs9wwnoJWoWIzgxKCds-206" style="edgeStyle=orthogonalEdgeStyle;rounded=0;orthogonalLoop=1;jettySize=auto;html=1;exitX=0.5;exitY=1;exitDx=0;exitDy=0;entryX=0;entryY=0.5;entryDx=0;entryDy=0;fontSize=20;" edge="1" parent="1">
          <mxGeometry relative="1" as="geometry">
            <mxPoint x="-1920" y="120.00000000000006" as="sourcePoint" />
            <mxPoint x="-1920" y="200" as="targetPoint" />
          </mxGeometry>
        </mxCell>
        <mxCell id="GLs9wwnoJWoWIzgxKCds-207" style="edgeStyle=orthogonalEdgeStyle;rounded=0;orthogonalLoop=1;jettySize=auto;html=1;exitX=0.5;exitY=1;exitDx=0;exitDy=0;entryX=0.5;entryY=0;entryDx=0;entryDy=0;fontSize=20;" edge="1" parent="1">
          <mxGeometry relative="1" as="geometry">
            <mxPoint x="-2040.0000000000005" y="120.00000000000006" as="sourcePoint" />
            <mxPoint x="-2040.0000000000005" y="200" as="targetPoint" />
          </mxGeometry>
        </mxCell>
        <mxCell id="GLs9wwnoJWoWIzgxKCds-208" value="" style="endArrow=classic;html=1;fontSize=20;entryX=1;entryY=0;entryDx=0;entryDy=0;" edge="1" parent="1">
          <mxGeometry width="50" height="50" relative="1" as="geometry">
            <mxPoint x="-1920" y="160" as="sourcePoint" />
            <mxPoint x="-2020.0000000000005" y="200" as="targetPoint" />
            <Array as="points">
              <mxPoint x="-1980" y="160" />
            </Array>
          </mxGeometry>
        </mxCell>
        <mxCell id="GLs9wwnoJWoWIzgxKCds-448" style="edgeStyle=orthogonalEdgeStyle;rounded=0;orthogonalLoop=1;jettySize=auto;html=1;exitX=1;exitY=0.5;exitDx=0;exitDy=0;entryX=0.5;entryY=0;entryDx=0;entryDy=0;fontSize=20;" edge="1" parent="1" source="GLs9wwnoJWoWIzgxKCds-209" target="GLs9wwnoJWoWIzgxKCds-422">
          <mxGeometry relative="1" as="geometry" />
        </mxCell>
        <mxCell id="GLs9wwnoJWoWIzgxKCds-209" value="" style="triangle;whiteSpace=wrap;html=1;direction=south;" vertex="1" parent="1">
          <mxGeometry x="-380" y="320" width="40" height="40" as="geometry" />
        </mxCell>
        <mxCell id="GLs9wwnoJWoWIzgxKCds-258" style="edgeStyle=orthogonalEdgeStyle;rounded=0;orthogonalLoop=1;jettySize=auto;html=1;exitX=0.5;exitY=1;exitDx=0;exitDy=0;entryX=0;entryY=0.5;entryDx=0;entryDy=0;fontSize=20;" edge="1" parent="1" source="GLs9wwnoJWoWIzgxKCds-210" target="GLs9wwnoJWoWIzgxKCds-223">
          <mxGeometry relative="1" as="geometry" />
        </mxCell>
        <mxCell id="GLs9wwnoJWoWIzgxKCds-210" value="" style="whiteSpace=wrap;html=1;aspect=fixed;fillColor=#333333;" vertex="1" parent="1">
          <mxGeometry x="-620" y="320" width="40" height="40" as="geometry" />
        </mxCell>
        <mxCell id="GLs9wwnoJWoWIzgxKCds-457" style="edgeStyle=orthogonalEdgeStyle;rounded=0;orthogonalLoop=1;jettySize=auto;html=1;exitX=1;exitY=0.5;exitDx=0;exitDy=0;entryX=0.5;entryY=0;entryDx=0;entryDy=0;fontSize=20;" edge="1" parent="1" source="GLs9wwnoJWoWIzgxKCds-211" target="GLs9wwnoJWoWIzgxKCds-419">
          <mxGeometry relative="1" as="geometry" />
        </mxCell>
        <mxCell id="GLs9wwnoJWoWIzgxKCds-211" value="" style="triangle;whiteSpace=wrap;html=1;direction=south;" vertex="1" parent="1">
          <mxGeometry x="-860" y="320" width="40" height="40" as="geometry" />
        </mxCell>
        <mxCell id="GLs9wwnoJWoWIzgxKCds-257" style="edgeStyle=orthogonalEdgeStyle;rounded=0;orthogonalLoop=1;jettySize=auto;html=1;exitX=0.5;exitY=1;exitDx=0;exitDy=0;entryX=0.5;entryY=0;entryDx=0;entryDy=0;fontSize=20;" edge="1" parent="1" source="GLs9wwnoJWoWIzgxKCds-212" target="GLs9wwnoJWoWIzgxKCds-224">
          <mxGeometry relative="1" as="geometry" />
        </mxCell>
        <mxCell id="GLs9wwnoJWoWIzgxKCds-212" value="" style="whiteSpace=wrap;html=1;aspect=fixed;fillColor=#333333;" vertex="1" parent="1">
          <mxGeometry x="-1100" y="320" width="40" height="40" as="geometry" />
        </mxCell>
        <mxCell id="GLs9wwnoJWoWIzgxKCds-326" style="edgeStyle=orthogonalEdgeStyle;rounded=0;orthogonalLoop=1;jettySize=auto;html=1;exitX=1;exitY=0.5;exitDx=0;exitDy=0;entryX=0.5;entryY=0;entryDx=0;entryDy=0;fontSize=20;" edge="1" parent="1" source="GLs9wwnoJWoWIzgxKCds-213" target="GLs9wwnoJWoWIzgxKCds-310">
          <mxGeometry relative="1" as="geometry" />
        </mxCell>
        <mxCell id="GLs9wwnoJWoWIzgxKCds-213" value="" style="triangle;whiteSpace=wrap;html=1;direction=south;" vertex="1" parent="1">
          <mxGeometry x="-1340" y="320" width="40" height="40" as="geometry" />
        </mxCell>
        <mxCell id="GLs9wwnoJWoWIzgxKCds-256" style="edgeStyle=orthogonalEdgeStyle;rounded=0;orthogonalLoop=1;jettySize=auto;html=1;exitX=0.5;exitY=1;exitDx=0;exitDy=0;entryX=0;entryY=0.5;entryDx=0;entryDy=0;fontSize=20;" edge="1" parent="1" source="GLs9wwnoJWoWIzgxKCds-214" target="GLs9wwnoJWoWIzgxKCds-225">
          <mxGeometry relative="1" as="geometry" />
        </mxCell>
        <mxCell id="GLs9wwnoJWoWIzgxKCds-214" value="" style="whiteSpace=wrap;html=1;aspect=fixed;fillColor=#333333;" vertex="1" parent="1">
          <mxGeometry x="-1580" y="320" width="40" height="40" as="geometry" />
        </mxCell>
        <mxCell id="GLs9wwnoJWoWIzgxKCds-328" style="edgeStyle=orthogonalEdgeStyle;rounded=0;orthogonalLoop=1;jettySize=auto;html=1;exitX=1;exitY=0.5;exitDx=0;exitDy=0;entryX=0.5;entryY=0;entryDx=0;entryDy=0;fontSize=20;" edge="1" parent="1" source="GLs9wwnoJWoWIzgxKCds-215" target="GLs9wwnoJWoWIzgxKCds-309">
          <mxGeometry relative="1" as="geometry" />
        </mxCell>
        <mxCell id="GLs9wwnoJWoWIzgxKCds-215" value="" style="triangle;whiteSpace=wrap;html=1;direction=south;" vertex="1" parent="1">
          <mxGeometry x="-1820" y="320" width="40" height="40" as="geometry" />
        </mxCell>
        <mxCell id="GLs9wwnoJWoWIzgxKCds-255" style="edgeStyle=orthogonalEdgeStyle;rounded=0;orthogonalLoop=1;jettySize=auto;html=1;exitX=0.5;exitY=1;exitDx=0;exitDy=0;entryX=0.5;entryY=0;entryDx=0;entryDy=0;fontSize=20;" edge="1" parent="1" source="GLs9wwnoJWoWIzgxKCds-216" target="GLs9wwnoJWoWIzgxKCds-226">
          <mxGeometry relative="1" as="geometry" />
        </mxCell>
        <mxCell id="GLs9wwnoJWoWIzgxKCds-216" value="" style="whiteSpace=wrap;html=1;aspect=fixed;fillColor=#333333;" vertex="1" parent="1">
          <mxGeometry x="-2060" y="320" width="40" height="40" as="geometry" />
        </mxCell>
        <mxCell id="GLs9wwnoJWoWIzgxKCds-334" style="edgeStyle=orthogonalEdgeStyle;rounded=0;orthogonalLoop=1;jettySize=auto;html=1;exitX=1;exitY=0.5;exitDx=0;exitDy=0;entryX=0.5;entryY=0;entryDx=0;entryDy=0;fontSize=20;" edge="1" parent="1" source="GLs9wwnoJWoWIzgxKCds-217" target="GLs9wwnoJWoWIzgxKCds-308">
          <mxGeometry relative="1" as="geometry" />
        </mxCell>
        <mxCell id="GLs9wwnoJWoWIzgxKCds-217" value="" style="triangle;whiteSpace=wrap;html=1;direction=south;" vertex="1" parent="1">
          <mxGeometry x="-2300" y="320" width="40" height="40" as="geometry" />
        </mxCell>
        <mxCell id="GLs9wwnoJWoWIzgxKCds-254" style="edgeStyle=orthogonalEdgeStyle;rounded=0;orthogonalLoop=1;jettySize=auto;html=1;exitX=0.5;exitY=1;exitDx=0;exitDy=0;entryX=0;entryY=0.5;entryDx=0;entryDy=0;fontSize=20;" edge="1" parent="1" source="GLs9wwnoJWoWIzgxKCds-218" target="GLs9wwnoJWoWIzgxKCds-227">
          <mxGeometry relative="1" as="geometry" />
        </mxCell>
        <mxCell id="GLs9wwnoJWoWIzgxKCds-218" value="" style="whiteSpace=wrap;html=1;aspect=fixed;fillColor=#333333;" vertex="1" parent="1">
          <mxGeometry x="-2540" y="320" width="40" height="40" as="geometry" />
        </mxCell>
        <mxCell id="GLs9wwnoJWoWIzgxKCds-338" style="edgeStyle=orthogonalEdgeStyle;rounded=0;orthogonalLoop=1;jettySize=auto;html=1;exitX=1;exitY=0.5;exitDx=0;exitDy=0;entryX=0.5;entryY=0;entryDx=0;entryDy=0;fontSize=20;" edge="1" parent="1" source="GLs9wwnoJWoWIzgxKCds-219" target="GLs9wwnoJWoWIzgxKCds-307">
          <mxGeometry relative="1" as="geometry" />
        </mxCell>
        <mxCell id="GLs9wwnoJWoWIzgxKCds-219" value="" style="triangle;whiteSpace=wrap;html=1;direction=south;" vertex="1" parent="1">
          <mxGeometry x="-2780" y="320" width="40" height="40" as="geometry" />
        </mxCell>
        <mxCell id="GLs9wwnoJWoWIzgxKCds-253" style="edgeStyle=orthogonalEdgeStyle;rounded=0;orthogonalLoop=1;jettySize=auto;html=1;exitX=0.5;exitY=1;exitDx=0;exitDy=0;entryX=0.5;entryY=0;entryDx=0;entryDy=0;fontSize=20;" edge="1" parent="1" source="GLs9wwnoJWoWIzgxKCds-220" target="GLs9wwnoJWoWIzgxKCds-228">
          <mxGeometry relative="1" as="geometry" />
        </mxCell>
        <mxCell id="GLs9wwnoJWoWIzgxKCds-220" value="" style="whiteSpace=wrap;html=1;aspect=fixed;fillColor=#333333;" vertex="1" parent="1">
          <mxGeometry x="-3020" y="320" width="40" height="40" as="geometry" />
        </mxCell>
        <mxCell id="GLs9wwnoJWoWIzgxKCds-434" style="edgeStyle=orthogonalEdgeStyle;rounded=0;orthogonalLoop=1;jettySize=auto;html=1;exitX=1;exitY=0.5;exitDx=0;exitDy=0;entryX=0.5;entryY=0;entryDx=0;entryDy=0;fontSize=20;" edge="1" parent="1" source="GLs9wwnoJWoWIzgxKCds-221" target="GLs9wwnoJWoWIzgxKCds-343">
          <mxGeometry relative="1" as="geometry" />
        </mxCell>
        <mxCell id="GLs9wwnoJWoWIzgxKCds-221" value="" style="triangle;whiteSpace=wrap;html=1;direction=south;" vertex="1" parent="1">
          <mxGeometry x="340" y="440" width="40" height="40" as="geometry" />
        </mxCell>
        <mxCell id="GLs9wwnoJWoWIzgxKCds-269" style="edgeStyle=orthogonalEdgeStyle;rounded=0;orthogonalLoop=1;jettySize=auto;html=1;exitX=0.5;exitY=1;exitDx=0;exitDy=0;entryX=0;entryY=0.5;entryDx=0;entryDy=0;fontSize=20;" edge="1" parent="1" source="GLs9wwnoJWoWIzgxKCds-222" target="GLs9wwnoJWoWIzgxKCds-265">
          <mxGeometry relative="1" as="geometry" />
        </mxCell>
        <mxCell id="GLs9wwnoJWoWIzgxKCds-222" value="" style="whiteSpace=wrap;html=1;aspect=fixed;fillColor=#CCCCCC;" vertex="1" parent="1">
          <mxGeometry x="-140" y="440" width="40" height="40" as="geometry" />
        </mxCell>
        <mxCell id="GLs9wwnoJWoWIzgxKCds-452" style="edgeStyle=orthogonalEdgeStyle;rounded=0;orthogonalLoop=1;jettySize=auto;html=1;exitX=1;exitY=0.5;exitDx=0;exitDy=0;entryX=0.5;entryY=0;entryDx=0;entryDy=0;fontSize=20;" edge="1" parent="1" source="GLs9wwnoJWoWIzgxKCds-223" target="GLs9wwnoJWoWIzgxKCds-421">
          <mxGeometry relative="1" as="geometry" />
        </mxCell>
        <mxCell id="GLs9wwnoJWoWIzgxKCds-223" value="" style="triangle;whiteSpace=wrap;html=1;direction=south;" vertex="1" parent="1">
          <mxGeometry x="-620" y="440" width="40" height="40" as="geometry" />
        </mxCell>
        <mxCell id="GLs9wwnoJWoWIzgxKCds-270" style="edgeStyle=orthogonalEdgeStyle;rounded=0;orthogonalLoop=1;jettySize=auto;html=1;exitX=0.5;exitY=1;exitDx=0;exitDy=0;entryX=0.5;entryY=0;entryDx=0;entryDy=0;fontSize=20;" edge="1" parent="1" source="GLs9wwnoJWoWIzgxKCds-224" target="GLs9wwnoJWoWIzgxKCds-266">
          <mxGeometry relative="1" as="geometry" />
        </mxCell>
        <mxCell id="GLs9wwnoJWoWIzgxKCds-224" value="" style="whiteSpace=wrap;html=1;aspect=fixed;fillColor=#333333;" vertex="1" parent="1">
          <mxGeometry x="-1100" y="440" width="40" height="40" as="geometry" />
        </mxCell>
        <mxCell id="GLs9wwnoJWoWIzgxKCds-327" style="edgeStyle=orthogonalEdgeStyle;rounded=0;orthogonalLoop=1;jettySize=auto;html=1;exitX=1;exitY=0.5;exitDx=0;exitDy=0;entryX=0.5;entryY=0;entryDx=0;entryDy=0;fontSize=20;" edge="1" parent="1" source="GLs9wwnoJWoWIzgxKCds-225" target="GLs9wwnoJWoWIzgxKCds-303">
          <mxGeometry relative="1" as="geometry" />
        </mxCell>
        <mxCell id="GLs9wwnoJWoWIzgxKCds-225" value="" style="triangle;whiteSpace=wrap;html=1;direction=south;" vertex="1" parent="1">
          <mxGeometry x="-1580" y="440" width="40" height="40" as="geometry" />
        </mxCell>
        <mxCell id="GLs9wwnoJWoWIzgxKCds-271" style="edgeStyle=orthogonalEdgeStyle;rounded=0;orthogonalLoop=1;jettySize=auto;html=1;exitX=0.5;exitY=1;exitDx=0;exitDy=0;entryX=0;entryY=0.5;entryDx=0;entryDy=0;fontSize=20;" edge="1" parent="1" source="GLs9wwnoJWoWIzgxKCds-226" target="GLs9wwnoJWoWIzgxKCds-267">
          <mxGeometry relative="1" as="geometry" />
        </mxCell>
        <mxCell id="GLs9wwnoJWoWIzgxKCds-226" value="" style="whiteSpace=wrap;html=1;aspect=fixed;fillColor=#333333;" vertex="1" parent="1">
          <mxGeometry x="-2060" y="440" width="40" height="40" as="geometry" />
        </mxCell>
        <mxCell id="GLs9wwnoJWoWIzgxKCds-336" style="edgeStyle=orthogonalEdgeStyle;rounded=0;orthogonalLoop=1;jettySize=auto;html=1;exitX=1;exitY=0.5;exitDx=0;exitDy=0;entryX=0.5;entryY=0;entryDx=0;entryDy=0;fontSize=20;" edge="1" parent="1" source="GLs9wwnoJWoWIzgxKCds-227" target="GLs9wwnoJWoWIzgxKCds-304">
          <mxGeometry relative="1" as="geometry" />
        </mxCell>
        <mxCell id="GLs9wwnoJWoWIzgxKCds-227" value="" style="triangle;whiteSpace=wrap;html=1;direction=south;" vertex="1" parent="1">
          <mxGeometry x="-2540" y="440" width="40" height="40" as="geometry" />
        </mxCell>
        <mxCell id="GLs9wwnoJWoWIzgxKCds-272" style="edgeStyle=orthogonalEdgeStyle;rounded=0;orthogonalLoop=1;jettySize=auto;html=1;exitX=0.5;exitY=1;exitDx=0;exitDy=0;entryX=0.5;entryY=0;entryDx=0;entryDy=0;fontSize=20;" edge="1" parent="1" source="GLs9wwnoJWoWIzgxKCds-228" target="GLs9wwnoJWoWIzgxKCds-268">
          <mxGeometry relative="1" as="geometry" />
        </mxCell>
        <mxCell id="GLs9wwnoJWoWIzgxKCds-228" value="" style="whiteSpace=wrap;html=1;aspect=fixed;fillColor=#333333;" vertex="1" parent="1">
          <mxGeometry x="-3020" y="440" width="40" height="40" as="geometry" />
        </mxCell>
        <mxCell id="GLs9wwnoJWoWIzgxKCds-231" value="" style="endArrow=classic;html=1;fontSize=20;entryX=1;entryY=0;entryDx=0;entryDy=0;" edge="1" parent="1" target="GLs9wwnoJWoWIzgxKCds-110">
          <mxGeometry width="50" height="50" relative="1" as="geometry">
            <mxPoint x="600" y="280" as="sourcePoint" />
            <mxPoint x="510" y="320" as="targetPoint" />
            <Array as="points">
              <mxPoint x="420" y="280" />
            </Array>
          </mxGeometry>
        </mxCell>
        <mxCell id="GLs9wwnoJWoWIzgxKCds-232" style="edgeStyle=orthogonalEdgeStyle;rounded=0;orthogonalLoop=1;jettySize=auto;html=1;exitX=0.5;exitY=1;exitDx=0;exitDy=0;fontSize=20;" edge="1" parent="1">
          <mxGeometry relative="1" as="geometry">
            <mxPoint x="119.5" y="240" as="sourcePoint" />
            <mxPoint x="119.5" y="320" as="targetPoint" />
          </mxGeometry>
        </mxCell>
        <mxCell id="GLs9wwnoJWoWIzgxKCds-233" style="edgeStyle=orthogonalEdgeStyle;rounded=0;orthogonalLoop=1;jettySize=auto;html=1;exitX=0.5;exitY=1;exitDx=0;exitDy=0;fontSize=20;" edge="1" parent="1">
          <mxGeometry relative="1" as="geometry">
            <mxPoint x="-120.5" y="240" as="sourcePoint" />
            <mxPoint x="-120.5" y="320" as="targetPoint" />
          </mxGeometry>
        </mxCell>
        <mxCell id="GLs9wwnoJWoWIzgxKCds-234" value="" style="endArrow=classic;html=1;fontSize=20;entryX=1;entryY=0;entryDx=0;entryDy=0;" edge="1" parent="1">
          <mxGeometry width="50" height="50" relative="1" as="geometry">
            <mxPoint x="119.5" y="280" as="sourcePoint" />
            <mxPoint x="-100.5" y="320" as="targetPoint" />
            <Array as="points">
              <mxPoint x="-60.5" y="280" />
            </Array>
          </mxGeometry>
        </mxCell>
        <mxCell id="GLs9wwnoJWoWIzgxKCds-235" style="edgeStyle=orthogonalEdgeStyle;rounded=0;orthogonalLoop=1;jettySize=auto;html=1;exitX=0.5;exitY=1;exitDx=0;exitDy=0;fontSize=20;" edge="1" parent="1">
          <mxGeometry relative="1" as="geometry">
            <mxPoint x="-360.5" y="240" as="sourcePoint" />
            <mxPoint x="-360.5" y="320" as="targetPoint" />
          </mxGeometry>
        </mxCell>
        <mxCell id="GLs9wwnoJWoWIzgxKCds-236" style="edgeStyle=orthogonalEdgeStyle;rounded=0;orthogonalLoop=1;jettySize=auto;html=1;exitX=0.5;exitY=1;exitDx=0;exitDy=0;fontSize=20;" edge="1" parent="1">
          <mxGeometry relative="1" as="geometry">
            <mxPoint x="-600.5" y="240" as="sourcePoint" />
            <mxPoint x="-600.5" y="320" as="targetPoint" />
          </mxGeometry>
        </mxCell>
        <mxCell id="GLs9wwnoJWoWIzgxKCds-237" value="" style="endArrow=classic;html=1;fontSize=20;entryX=1;entryY=0;entryDx=0;entryDy=0;" edge="1" parent="1">
          <mxGeometry width="50" height="50" relative="1" as="geometry">
            <mxPoint x="-360.5" y="280" as="sourcePoint" />
            <mxPoint x="-580.5" y="320" as="targetPoint" />
            <Array as="points">
              <mxPoint x="-540.5" y="280" />
            </Array>
          </mxGeometry>
        </mxCell>
        <mxCell id="GLs9wwnoJWoWIzgxKCds-238" style="edgeStyle=orthogonalEdgeStyle;rounded=0;orthogonalLoop=1;jettySize=auto;html=1;exitX=0.5;exitY=1;exitDx=0;exitDy=0;fontSize=20;" edge="1" parent="1">
          <mxGeometry relative="1" as="geometry">
            <mxPoint x="-840.5" y="240" as="sourcePoint" />
            <mxPoint x="-840.5" y="320" as="targetPoint" />
          </mxGeometry>
        </mxCell>
        <mxCell id="GLs9wwnoJWoWIzgxKCds-239" style="edgeStyle=orthogonalEdgeStyle;rounded=0;orthogonalLoop=1;jettySize=auto;html=1;exitX=0.5;exitY=1;exitDx=0;exitDy=0;fontSize=20;" edge="1" parent="1">
          <mxGeometry relative="1" as="geometry">
            <mxPoint x="-1080.5" y="240" as="sourcePoint" />
            <mxPoint x="-1080.5" y="320" as="targetPoint" />
          </mxGeometry>
        </mxCell>
        <mxCell id="GLs9wwnoJWoWIzgxKCds-240" value="" style="endArrow=classic;html=1;fontSize=20;entryX=1;entryY=0;entryDx=0;entryDy=0;" edge="1" parent="1">
          <mxGeometry width="50" height="50" relative="1" as="geometry">
            <mxPoint x="-840.5" y="280" as="sourcePoint" />
            <mxPoint x="-1060.5" y="320" as="targetPoint" />
            <Array as="points">
              <mxPoint x="-1020.5" y="280" />
            </Array>
          </mxGeometry>
        </mxCell>
        <mxCell id="GLs9wwnoJWoWIzgxKCds-241" style="edgeStyle=orthogonalEdgeStyle;rounded=0;orthogonalLoop=1;jettySize=auto;html=1;exitX=0.5;exitY=1;exitDx=0;exitDy=0;fontSize=20;" edge="1" parent="1">
          <mxGeometry relative="1" as="geometry">
            <mxPoint x="-1320.5" y="240" as="sourcePoint" />
            <mxPoint x="-1320.5" y="320" as="targetPoint" />
          </mxGeometry>
        </mxCell>
        <mxCell id="GLs9wwnoJWoWIzgxKCds-242" style="edgeStyle=orthogonalEdgeStyle;rounded=0;orthogonalLoop=1;jettySize=auto;html=1;exitX=0.5;exitY=1;exitDx=0;exitDy=0;fontSize=20;" edge="1" parent="1">
          <mxGeometry relative="1" as="geometry">
            <mxPoint x="-1560.5" y="240" as="sourcePoint" />
            <mxPoint x="-1560.5" y="320" as="targetPoint" />
          </mxGeometry>
        </mxCell>
        <mxCell id="GLs9wwnoJWoWIzgxKCds-243" value="" style="endArrow=classic;html=1;fontSize=20;entryX=1;entryY=0;entryDx=0;entryDy=0;" edge="1" parent="1">
          <mxGeometry width="50" height="50" relative="1" as="geometry">
            <mxPoint x="-1320.5" y="280" as="sourcePoint" />
            <mxPoint x="-1540.5" y="320" as="targetPoint" />
            <Array as="points">
              <mxPoint x="-1500.5" y="280" />
            </Array>
          </mxGeometry>
        </mxCell>
        <mxCell id="GLs9wwnoJWoWIzgxKCds-244" style="edgeStyle=orthogonalEdgeStyle;rounded=0;orthogonalLoop=1;jettySize=auto;html=1;exitX=0.5;exitY=1;exitDx=0;exitDy=0;fontSize=20;" edge="1" parent="1">
          <mxGeometry relative="1" as="geometry">
            <mxPoint x="-1800.5" y="240" as="sourcePoint" />
            <mxPoint x="-1800.5" y="320" as="targetPoint" />
          </mxGeometry>
        </mxCell>
        <mxCell id="GLs9wwnoJWoWIzgxKCds-245" style="edgeStyle=orthogonalEdgeStyle;rounded=0;orthogonalLoop=1;jettySize=auto;html=1;exitX=0.5;exitY=1;exitDx=0;exitDy=0;fontSize=20;" edge="1" parent="1">
          <mxGeometry relative="1" as="geometry">
            <mxPoint x="-2040.5" y="240" as="sourcePoint" />
            <mxPoint x="-2040.5" y="320" as="targetPoint" />
          </mxGeometry>
        </mxCell>
        <mxCell id="GLs9wwnoJWoWIzgxKCds-246" value="" style="endArrow=classic;html=1;fontSize=20;entryX=1;entryY=0;entryDx=0;entryDy=0;" edge="1" parent="1">
          <mxGeometry width="50" height="50" relative="1" as="geometry">
            <mxPoint x="-1800.5" y="280" as="sourcePoint" />
            <mxPoint x="-2020.5" y="320" as="targetPoint" />
            <Array as="points">
              <mxPoint x="-1980.5" y="280" />
            </Array>
          </mxGeometry>
        </mxCell>
        <mxCell id="GLs9wwnoJWoWIzgxKCds-247" style="edgeStyle=orthogonalEdgeStyle;rounded=0;orthogonalLoop=1;jettySize=auto;html=1;exitX=0.5;exitY=1;exitDx=0;exitDy=0;fontSize=20;" edge="1" parent="1">
          <mxGeometry relative="1" as="geometry">
            <mxPoint x="-2280.5" y="240" as="sourcePoint" />
            <mxPoint x="-2280.5" y="320" as="targetPoint" />
          </mxGeometry>
        </mxCell>
        <mxCell id="GLs9wwnoJWoWIzgxKCds-248" style="edgeStyle=orthogonalEdgeStyle;rounded=0;orthogonalLoop=1;jettySize=auto;html=1;exitX=0.5;exitY=1;exitDx=0;exitDy=0;fontSize=20;" edge="1" parent="1">
          <mxGeometry relative="1" as="geometry">
            <mxPoint x="-2520.5" y="240" as="sourcePoint" />
            <mxPoint x="-2520.5" y="320" as="targetPoint" />
          </mxGeometry>
        </mxCell>
        <mxCell id="GLs9wwnoJWoWIzgxKCds-249" value="" style="endArrow=classic;html=1;fontSize=20;entryX=1;entryY=0;entryDx=0;entryDy=0;" edge="1" parent="1">
          <mxGeometry width="50" height="50" relative="1" as="geometry">
            <mxPoint x="-2280.5" y="280" as="sourcePoint" />
            <mxPoint x="-2500.5" y="320" as="targetPoint" />
            <Array as="points">
              <mxPoint x="-2460.5" y="280" />
            </Array>
          </mxGeometry>
        </mxCell>
        <mxCell id="GLs9wwnoJWoWIzgxKCds-250" style="edgeStyle=orthogonalEdgeStyle;rounded=0;orthogonalLoop=1;jettySize=auto;html=1;exitX=0.5;exitY=1;exitDx=0;exitDy=0;fontSize=20;" edge="1" parent="1">
          <mxGeometry relative="1" as="geometry">
            <mxPoint x="-2760.5" y="240" as="sourcePoint" />
            <mxPoint x="-2760.5" y="320" as="targetPoint" />
          </mxGeometry>
        </mxCell>
        <mxCell id="GLs9wwnoJWoWIzgxKCds-251" style="edgeStyle=orthogonalEdgeStyle;rounded=0;orthogonalLoop=1;jettySize=auto;html=1;exitX=0.5;exitY=1;exitDx=0;exitDy=0;fontSize=20;" edge="1" parent="1">
          <mxGeometry relative="1" as="geometry">
            <mxPoint x="-3000.5" y="240" as="sourcePoint" />
            <mxPoint x="-3000.5" y="320" as="targetPoint" />
          </mxGeometry>
        </mxCell>
        <mxCell id="GLs9wwnoJWoWIzgxKCds-252" value="" style="endArrow=classic;html=1;fontSize=20;entryX=1;entryY=0;entryDx=0;entryDy=0;" edge="1" parent="1">
          <mxGeometry width="50" height="50" relative="1" as="geometry">
            <mxPoint x="-2760.5" y="280" as="sourcePoint" />
            <mxPoint x="-2980.5" y="320" as="targetPoint" />
            <Array as="points">
              <mxPoint x="-2940.5" y="280" />
            </Array>
          </mxGeometry>
        </mxCell>
        <mxCell id="GLs9wwnoJWoWIzgxKCds-261" value="" style="endArrow=classic;html=1;fontSize=20;entryX=1;entryY=0;entryDx=0;entryDy=0;" edge="1" parent="1" target="GLs9wwnoJWoWIzgxKCds-222">
          <mxGeometry width="50" height="50" relative="1" as="geometry">
            <mxPoint x="360" y="400" as="sourcePoint" />
            <mxPoint x="140" y="570" as="targetPoint" />
            <Array as="points">
              <mxPoint x="-60" y="400" />
            </Array>
          </mxGeometry>
        </mxCell>
        <mxCell id="GLs9wwnoJWoWIzgxKCds-262" value="" style="endArrow=classic;html=1;fontSize=20;entryX=1;entryY=0;entryDx=0;entryDy=0;" edge="1" parent="1">
          <mxGeometry width="50" height="50" relative="1" as="geometry">
            <mxPoint x="-600" y="400" as="sourcePoint" />
            <mxPoint x="-1060" y="440" as="targetPoint" />
            <Array as="points">
              <mxPoint x="-1020" y="400" />
            </Array>
          </mxGeometry>
        </mxCell>
        <mxCell id="GLs9wwnoJWoWIzgxKCds-263" value="" style="endArrow=classic;html=1;fontSize=20;entryX=1;entryY=0;entryDx=0;entryDy=0;" edge="1" parent="1">
          <mxGeometry width="50" height="50" relative="1" as="geometry">
            <mxPoint x="-1560" y="400" as="sourcePoint" />
            <mxPoint x="-2020" y="440" as="targetPoint" />
            <Array as="points">
              <mxPoint x="-1980" y="400" />
            </Array>
          </mxGeometry>
        </mxCell>
        <mxCell id="GLs9wwnoJWoWIzgxKCds-264" value="" style="endArrow=classic;html=1;fontSize=20;entryX=1;entryY=0;entryDx=0;entryDy=0;" edge="1" parent="1">
          <mxGeometry width="50" height="50" relative="1" as="geometry">
            <mxPoint x="-2520" y="400" as="sourcePoint" />
            <mxPoint x="-2980" y="440" as="targetPoint" />
            <Array as="points">
              <mxPoint x="-2940" y="400" />
            </Array>
          </mxGeometry>
        </mxCell>
        <mxCell id="GLs9wwnoJWoWIzgxKCds-443" style="edgeStyle=orthogonalEdgeStyle;rounded=0;orthogonalLoop=1;jettySize=auto;html=1;exitX=1;exitY=0.5;exitDx=0;exitDy=0;entryX=0.5;entryY=0;entryDx=0;entryDy=0;fontSize=20;" edge="1" parent="1" source="GLs9wwnoJWoWIzgxKCds-265" target="GLs9wwnoJWoWIzgxKCds-347">
          <mxGeometry relative="1" as="geometry" />
        </mxCell>
        <mxCell id="GLs9wwnoJWoWIzgxKCds-265" value="" style="triangle;whiteSpace=wrap;html=1;direction=south;" vertex="1" parent="1">
          <mxGeometry x="-140" y="560" width="40" height="40" as="geometry" />
        </mxCell>
        <mxCell id="GLs9wwnoJWoWIzgxKCds-299" style="edgeStyle=orthogonalEdgeStyle;rounded=0;orthogonalLoop=1;jettySize=auto;html=1;exitX=0.5;exitY=1;exitDx=0;exitDy=0;entryX=0;entryY=0.5;entryDx=0;entryDy=0;fontSize=20;" edge="1" parent="1" source="GLs9wwnoJWoWIzgxKCds-266" target="GLs9wwnoJWoWIzgxKCds-297">
          <mxGeometry relative="1" as="geometry" />
        </mxCell>
        <mxCell id="GLs9wwnoJWoWIzgxKCds-266" value="" style="whiteSpace=wrap;html=1;aspect=fixed;fillColor=#CCCCCC;" vertex="1" parent="1">
          <mxGeometry x="-1100" y="560" width="40" height="40" as="geometry" />
        </mxCell>
        <mxCell id="GLs9wwnoJWoWIzgxKCds-330" style="edgeStyle=orthogonalEdgeStyle;rounded=0;orthogonalLoop=1;jettySize=auto;html=1;exitX=1;exitY=0.5;exitDx=0;exitDy=0;entryX=0.5;entryY=0;entryDx=0;entryDy=0;fontSize=20;" edge="1" parent="1" source="GLs9wwnoJWoWIzgxKCds-267" target="GLs9wwnoJWoWIzgxKCds-301">
          <mxGeometry relative="1" as="geometry" />
        </mxCell>
        <mxCell id="GLs9wwnoJWoWIzgxKCds-267" value="" style="triangle;whiteSpace=wrap;html=1;direction=south;" vertex="1" parent="1">
          <mxGeometry x="-2060" y="560" width="40" height="40" as="geometry" />
        </mxCell>
        <mxCell id="GLs9wwnoJWoWIzgxKCds-300" style="edgeStyle=orthogonalEdgeStyle;rounded=0;orthogonalLoop=1;jettySize=auto;html=1;exitX=0.5;exitY=1;exitDx=0;exitDy=0;entryX=0.5;entryY=0;entryDx=0;entryDy=0;fontSize=20;" edge="1" parent="1" source="GLs9wwnoJWoWIzgxKCds-268" target="GLs9wwnoJWoWIzgxKCds-298">
          <mxGeometry relative="1" as="geometry" />
        </mxCell>
        <mxCell id="GLs9wwnoJWoWIzgxKCds-268" value="" style="whiteSpace=wrap;html=1;aspect=fixed;fillColor=#333333;" vertex="1" parent="1">
          <mxGeometry x="-3020" y="560" width="40" height="40" as="geometry" />
        </mxCell>
        <mxCell id="GLs9wwnoJWoWIzgxKCds-273" value="" style="endArrow=classic;html=1;fontSize=20;entryX=1;entryY=0;entryDx=0;entryDy=0;" edge="1" parent="1" target="GLs9wwnoJWoWIzgxKCds-268">
          <mxGeometry width="50" height="50" relative="1" as="geometry">
            <mxPoint x="-2040" y="520" as="sourcePoint" />
            <mxPoint x="-2500" y="560" as="targetPoint" />
            <Array as="points">
              <mxPoint x="-2940" y="520" />
            </Array>
          </mxGeometry>
        </mxCell>
        <mxCell id="GLs9wwnoJWoWIzgxKCds-274" value="" style="endArrow=classic;html=1;fontSize=20;entryX=1;entryY=0;entryDx=0;entryDy=0;" edge="1" parent="1">
          <mxGeometry width="50" height="50" relative="1" as="geometry">
            <mxPoint x="-120" y="520" as="sourcePoint" />
            <mxPoint x="-1060" y="560" as="targetPoint" />
            <Array as="points">
              <mxPoint x="-1020" y="520" />
            </Array>
          </mxGeometry>
        </mxCell>
        <mxCell id="GLs9wwnoJWoWIzgxKCds-324" style="edgeStyle=orthogonalEdgeStyle;rounded=0;orthogonalLoop=1;jettySize=auto;html=1;exitX=1;exitY=0.5;exitDx=0;exitDy=0;fontSize=20;" edge="1" parent="1" source="GLs9wwnoJWoWIzgxKCds-297">
          <mxGeometry relative="1" as="geometry">
            <mxPoint x="-1080" y="1280" as="targetPoint" />
          </mxGeometry>
        </mxCell>
        <mxCell id="GLs9wwnoJWoWIzgxKCds-297" value="" style="triangle;whiteSpace=wrap;html=1;direction=south;" vertex="1" parent="1">
          <mxGeometry x="-1100" y="680" width="40" height="40" as="geometry" />
        </mxCell>
        <mxCell id="GLs9wwnoJWoWIzgxKCds-400" style="edgeStyle=orthogonalEdgeStyle;rounded=0;orthogonalLoop=1;jettySize=auto;html=1;exitX=0.5;exitY=1;exitDx=0;exitDy=0;entryX=0;entryY=0.5;entryDx=0;entryDy=0;fontSize=20;" edge="1" parent="1" source="GLs9wwnoJWoWIzgxKCds-298" target="GLs9wwnoJWoWIzgxKCds-398">
          <mxGeometry relative="1" as="geometry" />
        </mxCell>
        <mxCell id="GLs9wwnoJWoWIzgxKCds-298" value="" style="whiteSpace=wrap;html=1;aspect=fixed;fillColor=#CCCCCC;" vertex="1" parent="1">
          <mxGeometry x="-3020" y="680" width="40" height="40" as="geometry" />
        </mxCell>
        <mxCell id="GLs9wwnoJWoWIzgxKCds-383" style="edgeStyle=orthogonalEdgeStyle;rounded=0;orthogonalLoop=1;jettySize=auto;html=1;exitX=0.5;exitY=1;exitDx=0;exitDy=0;entryX=0;entryY=0.5;entryDx=0;entryDy=0;fontSize=20;" edge="1" parent="1" source="GLs9wwnoJWoWIzgxKCds-301" target="GLs9wwnoJWoWIzgxKCds-302">
          <mxGeometry relative="1" as="geometry" />
        </mxCell>
        <mxCell id="GLs9wwnoJWoWIzgxKCds-301" value="" style="whiteSpace=wrap;html=1;aspect=fixed;fillColor=#CCCCCC;" vertex="1" parent="1">
          <mxGeometry x="-2060" y="800" width="40" height="40" as="geometry" />
        </mxCell>
        <mxCell id="GLs9wwnoJWoWIzgxKCds-382" style="edgeStyle=orthogonalEdgeStyle;rounded=0;orthogonalLoop=1;jettySize=auto;html=1;exitX=1;exitY=0.5;exitDx=0;exitDy=0;entryX=0.5;entryY=0;entryDx=0;entryDy=0;fontSize=20;" edge="1" parent="1" source="GLs9wwnoJWoWIzgxKCds-302" target="GLs9wwnoJWoWIzgxKCds-363">
          <mxGeometry relative="1" as="geometry" />
        </mxCell>
        <mxCell id="GLs9wwnoJWoWIzgxKCds-302" value="" style="triangle;whiteSpace=wrap;html=1;direction=south;" vertex="1" parent="1">
          <mxGeometry x="-2060" y="920" width="40" height="40" as="geometry" />
        </mxCell>
        <mxCell id="GLs9wwnoJWoWIzgxKCds-377" style="edgeStyle=orthogonalEdgeStyle;rounded=0;orthogonalLoop=1;jettySize=auto;html=1;exitX=0.5;exitY=1;exitDx=0;exitDy=0;entryX=0;entryY=0.5;entryDx=0;entryDy=0;fontSize=20;" edge="1" parent="1" source="GLs9wwnoJWoWIzgxKCds-303" target="GLs9wwnoJWoWIzgxKCds-306">
          <mxGeometry relative="1" as="geometry" />
        </mxCell>
        <mxCell id="GLs9wwnoJWoWIzgxKCds-303" value="" style="whiteSpace=wrap;html=1;aspect=fixed;fillColor=#CCCCCC;" vertex="1" parent="1">
          <mxGeometry x="-1580" y="920" width="40" height="40" as="geometry" />
        </mxCell>
        <mxCell id="GLs9wwnoJWoWIzgxKCds-387" style="edgeStyle=orthogonalEdgeStyle;rounded=0;orthogonalLoop=1;jettySize=auto;html=1;exitX=0.5;exitY=1;exitDx=0;exitDy=0;entryX=0;entryY=0.5;entryDx=0;entryDy=0;fontSize=20;" edge="1" parent="1" source="GLs9wwnoJWoWIzgxKCds-304" target="GLs9wwnoJWoWIzgxKCds-305">
          <mxGeometry relative="1" as="geometry" />
        </mxCell>
        <mxCell id="GLs9wwnoJWoWIzgxKCds-304" value="" style="whiteSpace=wrap;html=1;aspect=fixed;fillColor=#CCCCCC;" vertex="1" parent="1">
          <mxGeometry x="-2540" y="920" width="40" height="40" as="geometry" />
        </mxCell>
        <mxCell id="GLs9wwnoJWoWIzgxKCds-388" style="edgeStyle=orthogonalEdgeStyle;rounded=0;orthogonalLoop=1;jettySize=auto;html=1;exitX=1;exitY=0.5;exitDx=0;exitDy=0;entryX=0.5;entryY=0;entryDx=0;entryDy=0;fontSize=20;" edge="1" parent="1" source="GLs9wwnoJWoWIzgxKCds-305" target="GLs9wwnoJWoWIzgxKCds-367">
          <mxGeometry relative="1" as="geometry" />
        </mxCell>
        <mxCell id="GLs9wwnoJWoWIzgxKCds-305" value="" style="triangle;whiteSpace=wrap;html=1;direction=south;" vertex="1" parent="1">
          <mxGeometry x="-2540" y="1040" width="40" height="40" as="geometry" />
        </mxCell>
        <mxCell id="GLs9wwnoJWoWIzgxKCds-376" style="edgeStyle=orthogonalEdgeStyle;rounded=0;orthogonalLoop=1;jettySize=auto;html=1;exitX=1;exitY=0.5;exitDx=0;exitDy=0;entryX=0.5;entryY=0;entryDx=0;entryDy=0;fontSize=20;" edge="1" parent="1" source="GLs9wwnoJWoWIzgxKCds-306" target="GLs9wwnoJWoWIzgxKCds-359">
          <mxGeometry relative="1" as="geometry" />
        </mxCell>
        <mxCell id="GLs9wwnoJWoWIzgxKCds-306" value="" style="triangle;whiteSpace=wrap;html=1;direction=south;" vertex="1" parent="1">
          <mxGeometry x="-1580" y="1040" width="40" height="40" as="geometry" />
        </mxCell>
        <mxCell id="GLs9wwnoJWoWIzgxKCds-391" style="edgeStyle=orthogonalEdgeStyle;rounded=0;orthogonalLoop=1;jettySize=auto;html=1;exitX=0.5;exitY=1;exitDx=0;exitDy=0;entryX=0;entryY=0.5;entryDx=0;entryDy=0;fontSize=20;" edge="1" parent="1" source="GLs9wwnoJWoWIzgxKCds-307" target="GLs9wwnoJWoWIzgxKCds-311">
          <mxGeometry relative="1" as="geometry" />
        </mxCell>
        <mxCell id="GLs9wwnoJWoWIzgxKCds-307" value="" style="whiteSpace=wrap;html=1;aspect=fixed;fillColor=#CCCCCC;" vertex="1" parent="1">
          <mxGeometry x="-2780" y="1040" width="40" height="40" as="geometry" />
        </mxCell>
        <mxCell id="GLs9wwnoJWoWIzgxKCds-384" style="edgeStyle=orthogonalEdgeStyle;rounded=0;orthogonalLoop=1;jettySize=auto;html=1;exitX=0.5;exitY=1;exitDx=0;exitDy=0;entryX=0;entryY=0.5;entryDx=0;entryDy=0;fontSize=20;" edge="1" parent="1" source="GLs9wwnoJWoWIzgxKCds-308" target="GLs9wwnoJWoWIzgxKCds-312">
          <mxGeometry relative="1" as="geometry" />
        </mxCell>
        <mxCell id="GLs9wwnoJWoWIzgxKCds-308" value="" style="whiteSpace=wrap;html=1;aspect=fixed;fillColor=#CCCCCC;" vertex="1" parent="1">
          <mxGeometry x="-2300" y="1040" width="40" height="40" as="geometry" />
        </mxCell>
        <mxCell id="GLs9wwnoJWoWIzgxKCds-397" style="edgeStyle=orthogonalEdgeStyle;rounded=0;orthogonalLoop=1;jettySize=auto;html=1;exitX=0.5;exitY=1;exitDx=0;exitDy=0;entryX=0;entryY=0.5;entryDx=0;entryDy=0;fontSize=20;" edge="1" parent="1" source="GLs9wwnoJWoWIzgxKCds-309" target="GLs9wwnoJWoWIzgxKCds-317">
          <mxGeometry relative="1" as="geometry" />
        </mxCell>
        <mxCell id="GLs9wwnoJWoWIzgxKCds-309" value="" style="whiteSpace=wrap;html=1;aspect=fixed;fillColor=#CCCCCC;" vertex="1" parent="1">
          <mxGeometry x="-1820" y="1040" width="40" height="40" as="geometry" />
        </mxCell>
        <mxCell id="GLs9wwnoJWoWIzgxKCds-373" style="edgeStyle=orthogonalEdgeStyle;rounded=0;orthogonalLoop=1;jettySize=auto;html=1;exitX=0.5;exitY=1;exitDx=0;exitDy=0;fontSize=20;" edge="1" parent="1" source="GLs9wwnoJWoWIzgxKCds-310" target="GLs9wwnoJWoWIzgxKCds-320">
          <mxGeometry relative="1" as="geometry" />
        </mxCell>
        <mxCell id="GLs9wwnoJWoWIzgxKCds-310" value="" style="whiteSpace=wrap;html=1;aspect=fixed;fillColor=#CCCCCC;" vertex="1" parent="1">
          <mxGeometry x="-1340" y="1040" width="40" height="40" as="geometry" />
        </mxCell>
        <mxCell id="GLs9wwnoJWoWIzgxKCds-390" style="edgeStyle=orthogonalEdgeStyle;rounded=0;orthogonalLoop=1;jettySize=auto;html=1;exitX=1;exitY=0.5;exitDx=0;exitDy=0;entryX=0.5;entryY=0;entryDx=0;entryDy=0;fontSize=20;" edge="1" parent="1" source="GLs9wwnoJWoWIzgxKCds-311" target="GLs9wwnoJWoWIzgxKCds-369">
          <mxGeometry relative="1" as="geometry" />
        </mxCell>
        <mxCell id="GLs9wwnoJWoWIzgxKCds-311" value="" style="triangle;whiteSpace=wrap;html=1;direction=south;" vertex="1" parent="1">
          <mxGeometry x="-2780" y="1160" width="40" height="40" as="geometry" />
        </mxCell>
        <mxCell id="GLs9wwnoJWoWIzgxKCds-385" style="edgeStyle=orthogonalEdgeStyle;rounded=0;orthogonalLoop=1;jettySize=auto;html=1;exitX=1;exitY=0.5;exitDx=0;exitDy=0;entryX=0.5;entryY=0;entryDx=0;entryDy=0;fontSize=20;" edge="1" parent="1" source="GLs9wwnoJWoWIzgxKCds-312" target="GLs9wwnoJWoWIzgxKCds-365">
          <mxGeometry relative="1" as="geometry" />
        </mxCell>
        <mxCell id="GLs9wwnoJWoWIzgxKCds-312" value="" style="triangle;whiteSpace=wrap;html=1;direction=south;" vertex="1" parent="1">
          <mxGeometry x="-2300" y="1160" width="40" height="40" as="geometry" />
        </mxCell>
        <mxCell id="GLs9wwnoJWoWIzgxKCds-392" value="" style="edgeStyle=orthogonalEdgeStyle;rounded=0;orthogonalLoop=1;jettySize=auto;html=1;fontSize=20;" edge="1" parent="1" source="GLs9wwnoJWoWIzgxKCds-313" target="GLs9wwnoJWoWIzgxKCds-370">
          <mxGeometry relative="1" as="geometry" />
        </mxCell>
        <mxCell id="GLs9wwnoJWoWIzgxKCds-313" value="" style="whiteSpace=wrap;html=1;aspect=fixed;fillColor=#CCCCCC;" vertex="1" parent="1">
          <mxGeometry x="-2900" y="1160" width="40" height="40" as="geometry" />
        </mxCell>
        <mxCell id="GLs9wwnoJWoWIzgxKCds-389" style="edgeStyle=orthogonalEdgeStyle;rounded=0;orthogonalLoop=1;jettySize=auto;html=1;exitX=0.5;exitY=1;exitDx=0;exitDy=0;entryX=0.5;entryY=0;entryDx=0;entryDy=0;fontSize=20;" edge="1" parent="1" source="GLs9wwnoJWoWIzgxKCds-314" target="GLs9wwnoJWoWIzgxKCds-368">
          <mxGeometry relative="1" as="geometry" />
        </mxCell>
        <mxCell id="GLs9wwnoJWoWIzgxKCds-314" value="" style="whiteSpace=wrap;html=1;aspect=fixed;fillColor=#CCCCCC;" vertex="1" parent="1">
          <mxGeometry x="-2660" y="1160" width="40" height="40" as="geometry" />
        </mxCell>
        <mxCell id="GLs9wwnoJWoWIzgxKCds-386" style="edgeStyle=orthogonalEdgeStyle;rounded=0;orthogonalLoop=1;jettySize=auto;html=1;exitX=0.5;exitY=1;exitDx=0;exitDy=0;entryX=0.5;entryY=0;entryDx=0;entryDy=0;fontSize=20;" edge="1" parent="1" source="GLs9wwnoJWoWIzgxKCds-315" target="GLs9wwnoJWoWIzgxKCds-366">
          <mxGeometry relative="1" as="geometry" />
        </mxCell>
        <mxCell id="GLs9wwnoJWoWIzgxKCds-315" value="" style="whiteSpace=wrap;html=1;aspect=fixed;fillColor=#CCCCCC;" vertex="1" parent="1">
          <mxGeometry x="-2420" y="1160" width="40" height="40" as="geometry" />
        </mxCell>
        <mxCell id="GLs9wwnoJWoWIzgxKCds-381" style="edgeStyle=orthogonalEdgeStyle;rounded=0;orthogonalLoop=1;jettySize=auto;html=1;exitX=0.5;exitY=1;exitDx=0;exitDy=0;entryX=0.5;entryY=0;entryDx=0;entryDy=0;fontSize=20;" edge="1" parent="1" source="GLs9wwnoJWoWIzgxKCds-316" target="GLs9wwnoJWoWIzgxKCds-364">
          <mxGeometry relative="1" as="geometry" />
        </mxCell>
        <mxCell id="GLs9wwnoJWoWIzgxKCds-316" value="" style="whiteSpace=wrap;html=1;aspect=fixed;fillColor=#CCCCCC;" vertex="1" parent="1">
          <mxGeometry x="-2180" y="1160" width="40" height="40" as="geometry" />
        </mxCell>
        <mxCell id="GLs9wwnoJWoWIzgxKCds-379" style="edgeStyle=orthogonalEdgeStyle;rounded=0;orthogonalLoop=1;jettySize=auto;html=1;exitX=1;exitY=0.5;exitDx=0;exitDy=0;entryX=0.5;entryY=0;entryDx=0;entryDy=0;fontSize=20;" edge="1" parent="1" source="GLs9wwnoJWoWIzgxKCds-317" target="GLs9wwnoJWoWIzgxKCds-361">
          <mxGeometry relative="1" as="geometry" />
        </mxCell>
        <mxCell id="GLs9wwnoJWoWIzgxKCds-317" value="" style="triangle;whiteSpace=wrap;html=1;direction=south;" vertex="1" parent="1">
          <mxGeometry x="-1820" y="1160" width="40" height="40" as="geometry" />
        </mxCell>
        <mxCell id="GLs9wwnoJWoWIzgxKCds-380" style="edgeStyle=orthogonalEdgeStyle;rounded=0;orthogonalLoop=1;jettySize=auto;html=1;exitX=0.5;exitY=1;exitDx=0;exitDy=0;entryX=0.5;entryY=0;entryDx=0;entryDy=0;fontSize=20;" edge="1" parent="1" source="GLs9wwnoJWoWIzgxKCds-318" target="GLs9wwnoJWoWIzgxKCds-362">
          <mxGeometry relative="1" as="geometry" />
        </mxCell>
        <mxCell id="GLs9wwnoJWoWIzgxKCds-318" value="" style="whiteSpace=wrap;html=1;aspect=fixed;fillColor=#CCCCCC;" vertex="1" parent="1">
          <mxGeometry x="-1940" y="1160" width="40" height="40" as="geometry" />
        </mxCell>
        <mxCell id="GLs9wwnoJWoWIzgxKCds-378" style="edgeStyle=orthogonalEdgeStyle;rounded=0;orthogonalLoop=1;jettySize=auto;html=1;exitX=0.5;exitY=1;exitDx=0;exitDy=0;entryX=0.5;entryY=0;entryDx=0;entryDy=0;fontSize=20;" edge="1" parent="1" source="GLs9wwnoJWoWIzgxKCds-319" target="GLs9wwnoJWoWIzgxKCds-360">
          <mxGeometry relative="1" as="geometry" />
        </mxCell>
        <mxCell id="GLs9wwnoJWoWIzgxKCds-319" value="" style="whiteSpace=wrap;html=1;aspect=fixed;fillColor=#CCCCCC;" vertex="1" parent="1">
          <mxGeometry x="-1700" y="1160" width="40" height="40" as="geometry" />
        </mxCell>
        <mxCell id="GLs9wwnoJWoWIzgxKCds-374" style="edgeStyle=orthogonalEdgeStyle;rounded=0;orthogonalLoop=1;jettySize=auto;html=1;exitX=1;exitY=0.5;exitDx=0;exitDy=0;entryX=0.5;entryY=0;entryDx=0;entryDy=0;fontSize=20;" edge="1" parent="1" source="GLs9wwnoJWoWIzgxKCds-320" target="GLs9wwnoJWoWIzgxKCds-357">
          <mxGeometry relative="1" as="geometry" />
        </mxCell>
        <mxCell id="GLs9wwnoJWoWIzgxKCds-320" value="" style="triangle;whiteSpace=wrap;html=1;direction=south;" vertex="1" parent="1">
          <mxGeometry x="-1340" y="1160" width="40" height="40" as="geometry" />
        </mxCell>
        <mxCell id="GLs9wwnoJWoWIzgxKCds-375" style="edgeStyle=orthogonalEdgeStyle;rounded=0;orthogonalLoop=1;jettySize=auto;html=1;exitX=0.5;exitY=1;exitDx=0;exitDy=0;entryX=0.5;entryY=0;entryDx=0;entryDy=0;fontSize=20;" edge="1" parent="1" source="GLs9wwnoJWoWIzgxKCds-321" target="GLs9wwnoJWoWIzgxKCds-358">
          <mxGeometry relative="1" as="geometry" />
        </mxCell>
        <mxCell id="GLs9wwnoJWoWIzgxKCds-321" value="" style="whiteSpace=wrap;html=1;aspect=fixed;fillColor=#CCCCCC;" vertex="1" parent="1">
          <mxGeometry x="-1460" y="1160" width="40" height="40" as="geometry" />
        </mxCell>
        <mxCell id="GLs9wwnoJWoWIzgxKCds-372" style="edgeStyle=orthogonalEdgeStyle;rounded=0;orthogonalLoop=1;jettySize=auto;html=1;exitX=0.5;exitY=1;exitDx=0;exitDy=0;entryX=0.5;entryY=0;entryDx=0;entryDy=0;fontSize=20;" edge="1" parent="1" source="GLs9wwnoJWoWIzgxKCds-322" target="GLs9wwnoJWoWIzgxKCds-356">
          <mxGeometry relative="1" as="geometry" />
        </mxCell>
        <mxCell id="GLs9wwnoJWoWIzgxKCds-322" value="" style="whiteSpace=wrap;html=1;aspect=fixed;fillColor=#CCCCCC;" vertex="1" parent="1">
          <mxGeometry x="-1220" y="1160" width="40" height="40" as="geometry" />
        </mxCell>
        <mxCell id="GLs9wwnoJWoWIzgxKCds-323" value="" style="endArrow=classic;html=1;fontSize=20;entryX=1;entryY=0;entryDx=0;entryDy=0;" edge="1" parent="1">
          <mxGeometry width="50" height="50" relative="1" as="geometry">
            <mxPoint x="-1080" y="640" as="sourcePoint" />
            <mxPoint x="-2980" y="680" as="targetPoint" />
            <Array as="points">
              <mxPoint x="-2940" y="640" />
            </Array>
          </mxGeometry>
        </mxCell>
        <mxCell id="GLs9wwnoJWoWIzgxKCds-340" value="0:0" style="rounded=0;whiteSpace=wrap;html=1;fontSize=20;" vertex="1" parent="1">
          <mxGeometry x="680" y="1280" width="80" height="40" as="geometry" />
        </mxCell>
        <mxCell id="GLs9wwnoJWoWIzgxKCds-341" value="1:0" style="rounded=0;whiteSpace=wrap;html=1;fontSize=20;" vertex="1" parent="1">
          <mxGeometry x="560" y="1280" width="80" height="40" as="geometry" />
        </mxCell>
        <mxCell id="GLs9wwnoJWoWIzgxKCds-342" value="2:0" style="rounded=0;whiteSpace=wrap;html=1;fontSize=20;" vertex="1" parent="1">
          <mxGeometry x="440" y="1280" width="80" height="40" as="geometry" />
        </mxCell>
        <mxCell id="GLs9wwnoJWoWIzgxKCds-343" value="3:0" style="rounded=0;whiteSpace=wrap;html=1;fontSize=20;" vertex="1" parent="1">
          <mxGeometry x="320" y="1280" width="80" height="40" as="geometry" />
        </mxCell>
        <mxCell id="GLs9wwnoJWoWIzgxKCds-344" value="4:0" style="rounded=0;whiteSpace=wrap;html=1;fontSize=20;" vertex="1" parent="1">
          <mxGeometry x="200" y="1280" width="80" height="40" as="geometry" />
        </mxCell>
        <mxCell id="GLs9wwnoJWoWIzgxKCds-345" value="5:0" style="rounded=0;whiteSpace=wrap;html=1;fontSize=20;" vertex="1" parent="1">
          <mxGeometry x="80" y="1280" width="80" height="40" as="geometry" />
        </mxCell>
        <mxCell id="GLs9wwnoJWoWIzgxKCds-346" value="6:0" style="rounded=0;whiteSpace=wrap;html=1;fontSize=20;" vertex="1" parent="1">
          <mxGeometry x="-40" y="1280" width="80" height="40" as="geometry" />
        </mxCell>
        <mxCell id="GLs9wwnoJWoWIzgxKCds-347" value="7:0" style="rounded=0;whiteSpace=wrap;html=1;fontSize=20;" vertex="1" parent="1">
          <mxGeometry x="-160" y="1280" width="80" height="40" as="geometry" />
        </mxCell>
        <mxCell id="GLs9wwnoJWoWIzgxKCds-348" value="8:0" style="rounded=0;whiteSpace=wrap;html=1;fontSize=20;" vertex="1" parent="1">
          <mxGeometry x="-280" y="1280" width="80" height="40" as="geometry" />
        </mxCell>
        <mxCell id="GLs9wwnoJWoWIzgxKCds-349" value="9:0" style="rounded=0;whiteSpace=wrap;html=1;fontSize=20;" vertex="1" parent="1">
          <mxGeometry x="-400" y="1280" width="80" height="40" as="geometry" />
        </mxCell>
        <mxCell id="GLs9wwnoJWoWIzgxKCds-350" value="10:0" style="rounded=0;whiteSpace=wrap;html=1;fontSize=20;" vertex="1" parent="1">
          <mxGeometry x="-520" y="1280" width="80" height="40" as="geometry" />
        </mxCell>
        <mxCell id="GLs9wwnoJWoWIzgxKCds-351" value="11:0" style="rounded=0;whiteSpace=wrap;html=1;fontSize=20;" vertex="1" parent="1">
          <mxGeometry x="-640" y="1280" width="80" height="40" as="geometry" />
        </mxCell>
        <mxCell id="GLs9wwnoJWoWIzgxKCds-352" value="12:0" style="rounded=0;whiteSpace=wrap;html=1;fontSize=20;" vertex="1" parent="1">
          <mxGeometry x="-760" y="1280" width="80" height="40" as="geometry" />
        </mxCell>
        <mxCell id="GLs9wwnoJWoWIzgxKCds-353" value="13:0" style="rounded=0;whiteSpace=wrap;html=1;fontSize=20;" vertex="1" parent="1">
          <mxGeometry x="-880" y="1280" width="80" height="40" as="geometry" />
        </mxCell>
        <mxCell id="GLs9wwnoJWoWIzgxKCds-354" value="14:0" style="rounded=0;whiteSpace=wrap;html=1;fontSize=20;" vertex="1" parent="1">
          <mxGeometry x="-1000" y="1280" width="80" height="40" as="geometry" />
        </mxCell>
        <mxCell id="GLs9wwnoJWoWIzgxKCds-355" value="15:0" style="rounded=0;whiteSpace=wrap;html=1;fontSize=20;" vertex="1" parent="1">
          <mxGeometry x="-1120" y="1280" width="80" height="40" as="geometry" />
        </mxCell>
        <mxCell id="GLs9wwnoJWoWIzgxKCds-356" value="16:0" style="rounded=0;whiteSpace=wrap;html=1;fontSize=20;" vertex="1" parent="1">
          <mxGeometry x="-1240" y="1280" width="80" height="40" as="geometry" />
        </mxCell>
        <mxCell id="GLs9wwnoJWoWIzgxKCds-357" value="17:0" style="rounded=0;whiteSpace=wrap;html=1;fontSize=20;" vertex="1" parent="1">
          <mxGeometry x="-1360" y="1280" width="80" height="40" as="geometry" />
        </mxCell>
        <mxCell id="GLs9wwnoJWoWIzgxKCds-358" value="18:0" style="rounded=0;whiteSpace=wrap;html=1;fontSize=20;" vertex="1" parent="1">
          <mxGeometry x="-1480" y="1280" width="80" height="40" as="geometry" />
        </mxCell>
        <mxCell id="GLs9wwnoJWoWIzgxKCds-359" value="19:0" style="rounded=0;whiteSpace=wrap;html=1;fontSize=20;" vertex="1" parent="1">
          <mxGeometry x="-1600" y="1280" width="80" height="40" as="geometry" />
        </mxCell>
        <mxCell id="GLs9wwnoJWoWIzgxKCds-360" value="20:0" style="rounded=0;whiteSpace=wrap;html=1;fontSize=20;" vertex="1" parent="1">
          <mxGeometry x="-1720" y="1280" width="80" height="40" as="geometry" />
        </mxCell>
        <mxCell id="GLs9wwnoJWoWIzgxKCds-361" value="21:0" style="rounded=0;whiteSpace=wrap;html=1;fontSize=20;" vertex="1" parent="1">
          <mxGeometry x="-1840" y="1280" width="80" height="40" as="geometry" />
        </mxCell>
        <mxCell id="GLs9wwnoJWoWIzgxKCds-362" value="22:0" style="rounded=0;whiteSpace=wrap;html=1;fontSize=20;" vertex="1" parent="1">
          <mxGeometry x="-1960" y="1280" width="80" height="40" as="geometry" />
        </mxCell>
        <mxCell id="GLs9wwnoJWoWIzgxKCds-363" value="23:0" style="rounded=0;whiteSpace=wrap;html=1;fontSize=20;" vertex="1" parent="1">
          <mxGeometry x="-2080" y="1280" width="80" height="40" as="geometry" />
        </mxCell>
        <mxCell id="GLs9wwnoJWoWIzgxKCds-364" value="24:0" style="rounded=0;whiteSpace=wrap;html=1;fontSize=20;" vertex="1" parent="1">
          <mxGeometry x="-2200" y="1280" width="80" height="40" as="geometry" />
        </mxCell>
        <mxCell id="GLs9wwnoJWoWIzgxKCds-365" value="25:0" style="rounded=0;whiteSpace=wrap;html=1;fontSize=20;" vertex="1" parent="1">
          <mxGeometry x="-2320" y="1280" width="80" height="40" as="geometry" />
        </mxCell>
        <mxCell id="GLs9wwnoJWoWIzgxKCds-366" value="26:0" style="rounded=0;whiteSpace=wrap;html=1;fontSize=20;" vertex="1" parent="1">
          <mxGeometry x="-2440" y="1280" width="80" height="40" as="geometry" />
        </mxCell>
        <mxCell id="GLs9wwnoJWoWIzgxKCds-367" value="27:0" style="rounded=0;whiteSpace=wrap;html=1;fontSize=20;" vertex="1" parent="1">
          <mxGeometry x="-2560" y="1280" width="80" height="40" as="geometry" />
        </mxCell>
        <mxCell id="GLs9wwnoJWoWIzgxKCds-368" value="28:0" style="rounded=0;whiteSpace=wrap;html=1;fontSize=20;" vertex="1" parent="1">
          <mxGeometry x="-2680" y="1280" width="80" height="40" as="geometry" />
        </mxCell>
        <mxCell id="GLs9wwnoJWoWIzgxKCds-369" value="29:0" style="rounded=0;whiteSpace=wrap;html=1;fontSize=20;" vertex="1" parent="1">
          <mxGeometry x="-2800" y="1280" width="80" height="40" as="geometry" />
        </mxCell>
        <mxCell id="GLs9wwnoJWoWIzgxKCds-370" value="30:0" style="rounded=0;whiteSpace=wrap;html=1;fontSize=20;" vertex="1" parent="1">
          <mxGeometry x="-2920" y="1280" width="80" height="40" as="geometry" />
        </mxCell>
        <mxCell id="GLs9wwnoJWoWIzgxKCds-371" value="31:0" style="rounded=0;whiteSpace=wrap;html=1;fontSize=20;" vertex="1" parent="1">
          <mxGeometry x="-3040" y="1280" width="80" height="40" as="geometry" />
        </mxCell>
        <mxCell id="GLs9wwnoJWoWIzgxKCds-393" value="" style="endArrow=classic;html=1;fontSize=20;entryX=1;entryY=0;entryDx=0;entryDy=0;" edge="1" parent="1">
          <mxGeometry width="50" height="50" relative="1" as="geometry">
            <mxPoint x="-1080" y="760" as="sourcePoint" />
            <mxPoint x="-2020" y="800" as="targetPoint" />
            <Array as="points">
              <mxPoint x="-1980" y="760" />
            </Array>
          </mxGeometry>
        </mxCell>
        <mxCell id="GLs9wwnoJWoWIzgxKCds-394" value="" style="endArrow=classic;html=1;fontSize=20;entryX=1;entryY=0;entryDx=0;entryDy=0;" edge="1" parent="1">
          <mxGeometry width="50" height="50" relative="1" as="geometry">
            <mxPoint x="-2040" y="880" as="sourcePoint" />
            <mxPoint x="-2500" y="920" as="targetPoint" />
            <Array as="points">
              <mxPoint x="-2460" y="880" />
            </Array>
          </mxGeometry>
        </mxCell>
        <mxCell id="GLs9wwnoJWoWIzgxKCds-396" value="" style="endArrow=classic;html=1;fontSize=20;entryX=1;entryY=0;entryDx=0;entryDy=0;" edge="1" parent="1">
          <mxGeometry width="50" height="50" relative="1" as="geometry">
            <mxPoint x="-1080" y="880" as="sourcePoint" />
            <mxPoint x="-1540" y="920" as="targetPoint" />
            <Array as="points">
              <mxPoint x="-1500" y="880" />
            </Array>
          </mxGeometry>
        </mxCell>
        <mxCell id="GLs9wwnoJWoWIzgxKCds-401" style="edgeStyle=orthogonalEdgeStyle;rounded=0;orthogonalLoop=1;jettySize=auto;html=1;exitX=1;exitY=0.5;exitDx=0;exitDy=0;entryX=0.5;entryY=0;entryDx=0;entryDy=0;fontSize=20;" edge="1" parent="1" source="GLs9wwnoJWoWIzgxKCds-398" target="GLs9wwnoJWoWIzgxKCds-371">
          <mxGeometry relative="1" as="geometry" />
        </mxCell>
        <mxCell id="GLs9wwnoJWoWIzgxKCds-398" value="" style="triangle;whiteSpace=wrap;html=1;direction=south;" vertex="1" parent="1">
          <mxGeometry x="-3020" y="800" width="40" height="40" as="geometry" />
        </mxCell>
        <mxCell id="GLs9wwnoJWoWIzgxKCds-402" value="" style="endArrow=classic;html=1;fontSize=20;entryX=1;entryY=0;entryDx=0;entryDy=0;" edge="1" parent="1">
          <mxGeometry width="50" height="50" relative="1" as="geometry">
            <mxPoint x="-1080.0000000000005" y="1000" as="sourcePoint" />
            <mxPoint x="-1300.0000000000005" y="1040" as="targetPoint" />
            <Array as="points">
              <mxPoint x="-1260" y="1000" />
            </Array>
          </mxGeometry>
        </mxCell>
        <mxCell id="GLs9wwnoJWoWIzgxKCds-403" value="" style="endArrow=classic;html=1;fontSize=20;entryX=1;entryY=0;entryDx=0;entryDy=0;" edge="1" parent="1">
          <mxGeometry width="50" height="50" relative="1" as="geometry">
            <mxPoint x="-1080" y="1120" as="sourcePoint" />
            <mxPoint x="-1180.0000000000005" y="1160" as="targetPoint" />
            <Array as="points">
              <mxPoint x="-1140" y="1120" />
            </Array>
          </mxGeometry>
        </mxCell>
        <mxCell id="GLs9wwnoJWoWIzgxKCds-404" value="" style="endArrow=classic;html=1;fontSize=20;entryX=1;entryY=0;entryDx=0;entryDy=0;" edge="1" parent="1">
          <mxGeometry width="50" height="50" relative="1" as="geometry">
            <mxPoint x="-1320" y="1120" as="sourcePoint" />
            <mxPoint x="-1420.0000000000005" y="1160" as="targetPoint" />
            <Array as="points">
              <mxPoint x="-1380" y="1120" />
            </Array>
          </mxGeometry>
        </mxCell>
        <mxCell id="GLs9wwnoJWoWIzgxKCds-405" value="" style="endArrow=classic;html=1;fontSize=20;entryX=1;entryY=0;entryDx=0;entryDy=0;" edge="1" parent="1">
          <mxGeometry width="50" height="50" relative="1" as="geometry">
            <mxPoint x="-1560" y="1120" as="sourcePoint" />
            <mxPoint x="-1660.0000000000005" y="1160" as="targetPoint" />
            <Array as="points">
              <mxPoint x="-1620" y="1120" />
            </Array>
          </mxGeometry>
        </mxCell>
        <mxCell id="GLs9wwnoJWoWIzgxKCds-406" value="" style="endArrow=classic;html=1;fontSize=20;entryX=1;entryY=0;entryDx=0;entryDy=0;" edge="1" parent="1">
          <mxGeometry width="50" height="50" relative="1" as="geometry">
            <mxPoint x="-1560.0000000000005" y="1000" as="sourcePoint" />
            <mxPoint x="-1780.0000000000005" y="1040" as="targetPoint" />
            <Array as="points">
              <mxPoint x="-1740" y="1000" />
            </Array>
          </mxGeometry>
        </mxCell>
        <mxCell id="GLs9wwnoJWoWIzgxKCds-407" value="" style="endArrow=classic;html=1;fontSize=20;entryX=1;entryY=0;entryDx=0;entryDy=0;" edge="1" parent="1">
          <mxGeometry width="50" height="50" relative="1" as="geometry">
            <mxPoint x="-1800" y="1120" as="sourcePoint" />
            <mxPoint x="-1900.0000000000005" y="1160" as="targetPoint" />
            <Array as="points">
              <mxPoint x="-1860" y="1120" />
            </Array>
          </mxGeometry>
        </mxCell>
        <mxCell id="GLs9wwnoJWoWIzgxKCds-408" value="" style="endArrow=classic;html=1;fontSize=20;entryX=1;entryY=0;entryDx=0;entryDy=0;" edge="1" parent="1">
          <mxGeometry width="50" height="50" relative="1" as="geometry">
            <mxPoint x="-2040.0000000000005" y="1000" as="sourcePoint" />
            <mxPoint x="-2260.0000000000005" y="1040" as="targetPoint" />
            <Array as="points">
              <mxPoint x="-2220" y="1000" />
            </Array>
          </mxGeometry>
        </mxCell>
        <mxCell id="GLs9wwnoJWoWIzgxKCds-409" value="" style="endArrow=classic;html=1;fontSize=20;entryX=1;entryY=0;entryDx=0;entryDy=0;" edge="1" parent="1">
          <mxGeometry width="50" height="50" relative="1" as="geometry">
            <mxPoint x="-2280" y="1120" as="sourcePoint" />
            <mxPoint x="-2380.0000000000005" y="1160" as="targetPoint" />
            <Array as="points">
              <mxPoint x="-2340" y="1120" />
            </Array>
          </mxGeometry>
        </mxCell>
        <mxCell id="GLs9wwnoJWoWIzgxKCds-410" value="" style="endArrow=classic;html=1;fontSize=20;entryX=1;entryY=0;entryDx=0;entryDy=0;" edge="1" parent="1">
          <mxGeometry width="50" height="50" relative="1" as="geometry">
            <mxPoint x="-2040" y="1120" as="sourcePoint" />
            <mxPoint x="-2140.0000000000005" y="1160" as="targetPoint" />
            <Array as="points">
              <mxPoint x="-2100" y="1120" />
            </Array>
          </mxGeometry>
        </mxCell>
        <mxCell id="GLs9wwnoJWoWIzgxKCds-411" value="" style="endArrow=classic;html=1;fontSize=20;entryX=1;entryY=0;entryDx=0;entryDy=0;" edge="1" parent="1">
          <mxGeometry width="50" height="50" relative="1" as="geometry">
            <mxPoint x="-2520.0000000000005" y="1000" as="sourcePoint" />
            <mxPoint x="-2740.0000000000005" y="1040" as="targetPoint" />
            <Array as="points">
              <mxPoint x="-2700" y="1000" />
            </Array>
          </mxGeometry>
        </mxCell>
        <mxCell id="GLs9wwnoJWoWIzgxKCds-412" value="" style="endArrow=classic;html=1;fontSize=20;entryX=1;entryY=0;entryDx=0;entryDy=0;" edge="1" parent="1">
          <mxGeometry width="50" height="50" relative="1" as="geometry">
            <mxPoint x="-2520" y="1120" as="sourcePoint" />
            <mxPoint x="-2620.0000000000005" y="1160" as="targetPoint" />
            <Array as="points">
              <mxPoint x="-2580" y="1120" />
            </Array>
          </mxGeometry>
        </mxCell>
        <mxCell id="GLs9wwnoJWoWIzgxKCds-414" value="" style="endArrow=classic;html=1;fontSize=20;entryX=1;entryY=0;entryDx=0;entryDy=0;" edge="1" parent="1">
          <mxGeometry width="50" height="50" relative="1" as="geometry">
            <mxPoint x="-2760" y="1120" as="sourcePoint" />
            <mxPoint x="-2860.0000000000005" y="1160" as="targetPoint" />
            <Array as="points">
              <mxPoint x="-2820" y="1120" />
            </Array>
          </mxGeometry>
        </mxCell>
        <mxCell id="GLs9wwnoJWoWIzgxKCds-477" style="edgeStyle=orthogonalEdgeStyle;rounded=0;orthogonalLoop=1;jettySize=auto;html=1;exitX=0.5;exitY=1;exitDx=0;exitDy=0;entryX=0.5;entryY=0;entryDx=0;entryDy=0;fontSize=20;" edge="1" parent="1" source="GLs9wwnoJWoWIzgxKCds-415" target="GLs9wwnoJWoWIzgxKCds-354">
          <mxGeometry relative="1" as="geometry" />
        </mxCell>
        <mxCell id="GLs9wwnoJWoWIzgxKCds-415" value="" style="whiteSpace=wrap;html=1;aspect=fixed;fillColor=#CCCCCC;" vertex="1" parent="1">
          <mxGeometry x="-980" y="1160" width="40" height="40" as="geometry" />
        </mxCell>
        <mxCell id="GLs9wwnoJWoWIzgxKCds-459" style="edgeStyle=orthogonalEdgeStyle;rounded=0;orthogonalLoop=1;jettySize=auto;html=1;exitX=1;exitY=0.5;exitDx=0;exitDy=0;entryX=0.5;entryY=0;entryDx=0;entryDy=0;fontSize=20;" edge="1" parent="1" source="GLs9wwnoJWoWIzgxKCds-416" target="GLs9wwnoJWoWIzgxKCds-353">
          <mxGeometry relative="1" as="geometry" />
        </mxCell>
        <mxCell id="GLs9wwnoJWoWIzgxKCds-416" value="" style="triangle;whiteSpace=wrap;html=1;direction=south;" vertex="1" parent="1">
          <mxGeometry x="-860" y="1160" width="40" height="40" as="geometry" />
        </mxCell>
        <mxCell id="GLs9wwnoJWoWIzgxKCds-456" style="edgeStyle=orthogonalEdgeStyle;rounded=0;orthogonalLoop=1;jettySize=auto;html=1;exitX=0.5;exitY=1;exitDx=0;exitDy=0;entryX=0.5;entryY=0;entryDx=0;entryDy=0;fontSize=20;" edge="1" parent="1" source="GLs9wwnoJWoWIzgxKCds-417" target="GLs9wwnoJWoWIzgxKCds-352">
          <mxGeometry relative="1" as="geometry" />
        </mxCell>
        <mxCell id="GLs9wwnoJWoWIzgxKCds-417" value="" style="whiteSpace=wrap;html=1;aspect=fixed;fillColor=#CCCCCC;" vertex="1" parent="1">
          <mxGeometry x="-740" y="1160" width="40" height="40" as="geometry" />
        </mxCell>
        <mxCell id="GLs9wwnoJWoWIzgxKCds-458" style="edgeStyle=orthogonalEdgeStyle;rounded=0;orthogonalLoop=1;jettySize=auto;html=1;exitX=0.5;exitY=1;exitDx=0;exitDy=0;entryX=0;entryY=0.5;entryDx=0;entryDy=0;fontSize=20;" edge="1" parent="1" source="GLs9wwnoJWoWIzgxKCds-419" target="GLs9wwnoJWoWIzgxKCds-416">
          <mxGeometry relative="1" as="geometry" />
        </mxCell>
        <mxCell id="GLs9wwnoJWoWIzgxKCds-419" value="" style="whiteSpace=wrap;html=1;aspect=fixed;fillColor=#CCCCCC;" vertex="1" parent="1">
          <mxGeometry x="-860" y="1040" width="40" height="40" as="geometry" />
        </mxCell>
        <mxCell id="GLs9wwnoJWoWIzgxKCds-454" style="edgeStyle=orthogonalEdgeStyle;rounded=0;orthogonalLoop=1;jettySize=auto;html=1;exitX=1;exitY=0.5;exitDx=0;exitDy=0;entryX=0.5;entryY=0;entryDx=0;entryDy=0;fontSize=20;" edge="1" parent="1" source="GLs9wwnoJWoWIzgxKCds-420" target="GLs9wwnoJWoWIzgxKCds-351">
          <mxGeometry relative="1" as="geometry" />
        </mxCell>
        <mxCell id="GLs9wwnoJWoWIzgxKCds-420" value="" style="triangle;whiteSpace=wrap;html=1;direction=south;" vertex="1" parent="1">
          <mxGeometry x="-620" y="1040" width="40" height="40" as="geometry" />
        </mxCell>
        <mxCell id="GLs9wwnoJWoWIzgxKCds-453" style="edgeStyle=orthogonalEdgeStyle;rounded=0;orthogonalLoop=1;jettySize=auto;html=1;exitX=0.5;exitY=1;exitDx=0;exitDy=0;entryX=0;entryY=0.5;entryDx=0;entryDy=0;fontSize=20;" edge="1" parent="1" source="GLs9wwnoJWoWIzgxKCds-421" target="GLs9wwnoJWoWIzgxKCds-420">
          <mxGeometry relative="1" as="geometry" />
        </mxCell>
        <mxCell id="GLs9wwnoJWoWIzgxKCds-421" value="" style="whiteSpace=wrap;html=1;aspect=fixed;fillColor=#CCCCCC;" vertex="1" parent="1">
          <mxGeometry x="-620" y="920" width="40" height="40" as="geometry" />
        </mxCell>
        <mxCell id="GLs9wwnoJWoWIzgxKCds-447" style="edgeStyle=orthogonalEdgeStyle;rounded=0;orthogonalLoop=1;jettySize=auto;html=1;exitX=0.5;exitY=1;exitDx=0;exitDy=0;entryX=0;entryY=0.5;entryDx=0;entryDy=0;fontSize=20;" edge="1" parent="1" source="GLs9wwnoJWoWIzgxKCds-422" target="GLs9wwnoJWoWIzgxKCds-425">
          <mxGeometry relative="1" as="geometry" />
        </mxCell>
        <mxCell id="GLs9wwnoJWoWIzgxKCds-422" value="" style="whiteSpace=wrap;html=1;aspect=fixed;fillColor=#CCCCCC;" vertex="1" parent="1">
          <mxGeometry x="-380" y="1040" width="40" height="40" as="geometry" />
        </mxCell>
        <mxCell id="GLs9wwnoJWoWIzgxKCds-451" style="edgeStyle=orthogonalEdgeStyle;rounded=0;orthogonalLoop=1;jettySize=auto;html=1;exitX=0.5;exitY=1;exitDx=0;exitDy=0;entryX=0.5;entryY=0;entryDx=0;entryDy=0;fontSize=20;" edge="1" parent="1" source="GLs9wwnoJWoWIzgxKCds-423" target="GLs9wwnoJWoWIzgxKCds-350">
          <mxGeometry relative="1" as="geometry" />
        </mxCell>
        <mxCell id="GLs9wwnoJWoWIzgxKCds-423" value="" style="whiteSpace=wrap;html=1;aspect=fixed;fillColor=#CCCCCC;" vertex="1" parent="1">
          <mxGeometry x="-500" y="1160" width="40" height="40" as="geometry" />
        </mxCell>
        <mxCell id="GLs9wwnoJWoWIzgxKCds-445" style="edgeStyle=orthogonalEdgeStyle;rounded=0;orthogonalLoop=1;jettySize=auto;html=1;exitX=0.5;exitY=1;exitDx=0;exitDy=0;entryX=0.5;entryY=0;entryDx=0;entryDy=0;fontSize=20;" edge="1" parent="1" source="GLs9wwnoJWoWIzgxKCds-424" target="GLs9wwnoJWoWIzgxKCds-348">
          <mxGeometry relative="1" as="geometry" />
        </mxCell>
        <mxCell id="GLs9wwnoJWoWIzgxKCds-424" value="" style="whiteSpace=wrap;html=1;aspect=fixed;fillColor=#CCCCCC;" vertex="1" parent="1">
          <mxGeometry x="-260" y="1160" width="40" height="40" as="geometry" />
        </mxCell>
        <mxCell id="GLs9wwnoJWoWIzgxKCds-446" style="edgeStyle=orthogonalEdgeStyle;rounded=0;orthogonalLoop=1;jettySize=auto;html=1;exitX=1;exitY=0.5;exitDx=0;exitDy=0;entryX=0.5;entryY=0;entryDx=0;entryDy=0;fontSize=20;" edge="1" parent="1" source="GLs9wwnoJWoWIzgxKCds-425" target="GLs9wwnoJWoWIzgxKCds-349">
          <mxGeometry relative="1" as="geometry" />
        </mxCell>
        <mxCell id="GLs9wwnoJWoWIzgxKCds-425" value="" style="triangle;whiteSpace=wrap;html=1;direction=south;" vertex="1" parent="1">
          <mxGeometry x="-380" y="1160" width="40" height="40" as="geometry" />
        </mxCell>
        <mxCell id="GLs9wwnoJWoWIzgxKCds-439" style="edgeStyle=orthogonalEdgeStyle;rounded=0;orthogonalLoop=1;jettySize=auto;html=1;exitX=0.5;exitY=1;exitDx=0;exitDy=0;entryX=0;entryY=0.5;entryDx=0;entryDy=0;fontSize=20;" edge="1" parent="1" source="GLs9wwnoJWoWIzgxKCds-426" target="GLs9wwnoJWoWIzgxKCds-429">
          <mxGeometry relative="1" as="geometry" />
        </mxCell>
        <mxCell id="GLs9wwnoJWoWIzgxKCds-426" value="" style="whiteSpace=wrap;html=1;aspect=fixed;fillColor=#CCCCCC;" vertex="1" parent="1">
          <mxGeometry x="100" y="1040" width="40" height="40" as="geometry" />
        </mxCell>
        <mxCell id="GLs9wwnoJWoWIzgxKCds-442" style="edgeStyle=orthogonalEdgeStyle;rounded=0;orthogonalLoop=1;jettySize=auto;html=1;exitX=0.5;exitY=1;exitDx=0;exitDy=0;entryX=0.5;entryY=0;entryDx=0;entryDy=0;fontSize=20;" edge="1" parent="1" source="GLs9wwnoJWoWIzgxKCds-427" target="GLs9wwnoJWoWIzgxKCds-346">
          <mxGeometry relative="1" as="geometry" />
        </mxCell>
        <mxCell id="GLs9wwnoJWoWIzgxKCds-427" value="" style="whiteSpace=wrap;html=1;aspect=fixed;fillColor=#CCCCCC;" vertex="1" parent="1">
          <mxGeometry x="-20" y="1160" width="40" height="40" as="geometry" />
        </mxCell>
        <mxCell id="GLs9wwnoJWoWIzgxKCds-437" style="edgeStyle=orthogonalEdgeStyle;rounded=0;orthogonalLoop=1;jettySize=auto;html=1;exitX=0.5;exitY=1;exitDx=0;exitDy=0;entryX=0.5;entryY=0;entryDx=0;entryDy=0;fontSize=20;" edge="1" parent="1" source="GLs9wwnoJWoWIzgxKCds-428" target="GLs9wwnoJWoWIzgxKCds-344">
          <mxGeometry relative="1" as="geometry" />
        </mxCell>
        <mxCell id="GLs9wwnoJWoWIzgxKCds-428" value="" style="whiteSpace=wrap;html=1;aspect=fixed;fillColor=#CCCCCC;" vertex="1" parent="1">
          <mxGeometry x="220" y="1160" width="40" height="40" as="geometry" />
        </mxCell>
        <mxCell id="GLs9wwnoJWoWIzgxKCds-440" style="edgeStyle=orthogonalEdgeStyle;rounded=0;orthogonalLoop=1;jettySize=auto;html=1;exitX=1;exitY=0.5;exitDx=0;exitDy=0;entryX=0.5;entryY=0;entryDx=0;entryDy=0;fontSize=20;" edge="1" parent="1" source="GLs9wwnoJWoWIzgxKCds-429" target="GLs9wwnoJWoWIzgxKCds-345">
          <mxGeometry relative="1" as="geometry" />
        </mxCell>
        <mxCell id="GLs9wwnoJWoWIzgxKCds-429" value="" style="triangle;whiteSpace=wrap;html=1;direction=south;" vertex="1" parent="1">
          <mxGeometry x="100" y="1160" width="40" height="40" as="geometry" />
        </mxCell>
        <mxCell id="GLs9wwnoJWoWIzgxKCds-435" style="edgeStyle=orthogonalEdgeStyle;rounded=0;orthogonalLoop=1;jettySize=auto;html=1;exitX=0.5;exitY=1;exitDx=0;exitDy=0;entryX=0.5;entryY=0;entryDx=0;entryDy=0;fontSize=20;" edge="1" parent="1" source="GLs9wwnoJWoWIzgxKCds-430" target="GLs9wwnoJWoWIzgxKCds-342">
          <mxGeometry relative="1" as="geometry" />
        </mxCell>
        <mxCell id="GLs9wwnoJWoWIzgxKCds-430" value="" style="whiteSpace=wrap;html=1;aspect=fixed;fillColor=#CCCCCC;" vertex="1" parent="1">
          <mxGeometry x="460" y="1160" width="40" height="40" as="geometry" />
        </mxCell>
        <mxCell id="GLs9wwnoJWoWIzgxKCds-462" value="" style="endArrow=classic;html=1;fontSize=20;entryX=1;entryY=0;entryDx=0;entryDy=0;" edge="1" parent="1">
          <mxGeometry width="50" height="50" relative="1" as="geometry">
            <mxPoint x="-840" y="1120" as="sourcePoint" />
            <mxPoint x="-940.0000000000005" y="1160" as="targetPoint" />
            <Array as="points">
              <mxPoint x="-900" y="1120" />
            </Array>
          </mxGeometry>
        </mxCell>
        <mxCell id="GLs9wwnoJWoWIzgxKCds-463" value="" style="endArrow=classic;html=1;fontSize=20;entryX=1;entryY=0;entryDx=0;entryDy=0;" edge="1" parent="1">
          <mxGeometry width="50" height="50" relative="1" as="geometry">
            <mxPoint x="-600" y="1120" as="sourcePoint" />
            <mxPoint x="-700.0000000000005" y="1160" as="targetPoint" />
            <Array as="points">
              <mxPoint x="-660" y="1120" />
            </Array>
          </mxGeometry>
        </mxCell>
        <mxCell id="GLs9wwnoJWoWIzgxKCds-464" value="" style="endArrow=classic;html=1;fontSize=20;entryX=1;entryY=0;entryDx=0;entryDy=0;" edge="1" parent="1">
          <mxGeometry width="50" height="50" relative="1" as="geometry">
            <mxPoint x="-600.0000000000005" y="1000" as="sourcePoint" />
            <mxPoint x="-820.0000000000005" y="1040" as="targetPoint" />
            <Array as="points">
              <mxPoint x="-780" y="1000" />
            </Array>
          </mxGeometry>
        </mxCell>
        <mxCell id="GLs9wwnoJWoWIzgxKCds-465" value="" style="endArrow=classic;html=1;fontSize=20;entryX=1;entryY=0;entryDx=0;entryDy=0;" edge="1" parent="1">
          <mxGeometry width="50" height="50" relative="1" as="geometry">
            <mxPoint x="-120.00000000000045" y="1000" as="sourcePoint" />
            <mxPoint x="-340.00000000000045" y="1040" as="targetPoint" />
            <Array as="points">
              <mxPoint x="-300" y="1000" />
            </Array>
          </mxGeometry>
        </mxCell>
        <mxCell id="GLs9wwnoJWoWIzgxKCds-466" value="" style="endArrow=classic;html=1;fontSize=20;entryX=1;entryY=0;entryDx=0;entryDy=0;" edge="1" parent="1">
          <mxGeometry width="50" height="50" relative="1" as="geometry">
            <mxPoint x="-120" y="880" as="sourcePoint" />
            <mxPoint x="-580" y="920" as="targetPoint" />
            <Array as="points">
              <mxPoint x="-540" y="880" />
            </Array>
          </mxGeometry>
        </mxCell>
        <mxCell id="GLs9wwnoJWoWIzgxKCds-467" value="" style="endArrow=classic;html=1;fontSize=20;entryX=1;entryY=0;entryDx=0;entryDy=0;" edge="1" parent="1">
          <mxGeometry width="50" height="50" relative="1" as="geometry">
            <mxPoint x="-360" y="1120" as="sourcePoint" />
            <mxPoint x="-460" y="1160" as="targetPoint" />
            <Array as="points">
              <mxPoint x="-420" y="1120" />
            </Array>
          </mxGeometry>
        </mxCell>
        <mxCell id="GLs9wwnoJWoWIzgxKCds-468" value="" style="endArrow=classic;html=1;fontSize=20;entryX=1;entryY=0;entryDx=0;entryDy=0;" edge="1" parent="1">
          <mxGeometry width="50" height="50" relative="1" as="geometry">
            <mxPoint x="-120" y="1120" as="sourcePoint" />
            <mxPoint x="-220" y="1160" as="targetPoint" />
            <Array as="points">
              <mxPoint x="-180" y="1120" />
            </Array>
          </mxGeometry>
        </mxCell>
        <mxCell id="GLs9wwnoJWoWIzgxKCds-469" value="" style="endArrow=classic;html=1;fontSize=20;entryX=1;entryY=0;entryDx=0;entryDy=0;" edge="1" parent="1">
          <mxGeometry width="50" height="50" relative="1" as="geometry">
            <mxPoint x="120" y="1120" as="sourcePoint" />
            <mxPoint x="20" y="1160" as="targetPoint" />
            <Array as="points">
              <mxPoint x="60" y="1120" />
            </Array>
          </mxGeometry>
        </mxCell>
        <mxCell id="GLs9wwnoJWoWIzgxKCds-470" value="" style="endArrow=classic;html=1;fontSize=20;entryX=1;entryY=0;entryDx=0;entryDy=0;" edge="1" parent="1">
          <mxGeometry width="50" height="50" relative="1" as="geometry">
            <mxPoint x="360" y="1120" as="sourcePoint" />
            <mxPoint x="260" y="1160" as="targetPoint" />
            <Array as="points">
              <mxPoint x="300" y="1120" />
            </Array>
          </mxGeometry>
        </mxCell>
        <mxCell id="GLs9wwnoJWoWIzgxKCds-471" value="" style="endArrow=classic;html=1;fontSize=20;entryX=1;entryY=0;entryDx=0;entryDy=0;" edge="1" parent="1">
          <mxGeometry width="50" height="50" relative="1" as="geometry">
            <mxPoint x="600" y="1120" as="sourcePoint" />
            <mxPoint x="500" y="1160" as="targetPoint" />
            <Array as="points">
              <mxPoint x="540" y="1120" />
            </Array>
          </mxGeometry>
        </mxCell>
        <mxCell id="GLs9wwnoJWoWIzgxKCds-472" value="" style="endArrow=classic;html=1;fontSize=20;entryX=1;entryY=0;entryDx=0;entryDy=0;" edge="1" parent="1">
          <mxGeometry width="50" height="50" relative="1" as="geometry">
            <mxPoint x="360" y="1000" as="sourcePoint" />
            <mxPoint x="140" y="1040" as="targetPoint" />
            <Array as="points">
              <mxPoint x="180" y="1000" />
            </Array>
          </mxGeometry>
        </mxCell>
        <mxCell id="GLs9wwnoJWoWIzgxKCds-478" value="1:0" style="text;html=1;align=center;verticalAlign=middle;resizable=0;points=[];autosize=1;fontSize=20;" vertex="1" parent="1">
          <mxGeometry x="555.0011664835613" y="239.99664922805064" width="40" height="30" as="geometry" />
        </mxCell>
        <mxCell id="GLs9wwnoJWoWIzgxKCds-479" value="3:2" style="text;html=1;align=center;verticalAlign=middle;resizable=0;points=[];autosize=1;fontSize=20;" vertex="1" parent="1">
          <mxGeometry x="315.0011664835613" y="239.99664922805064" width="40" height="30" as="geometry" />
        </mxCell>
        <mxCell id="GLs9wwnoJWoWIzgxKCds-480" value="5:4" style="text;html=1;align=center;verticalAlign=middle;resizable=0;points=[];autosize=1;fontSize=20;" vertex="1" parent="1">
          <mxGeometry x="74.99691564650774" y="239.99947149367563" width="40" height="30" as="geometry" />
        </mxCell>
        <mxCell id="GLs9wwnoJWoWIzgxKCds-481" value="7:6" style="text;html=1;align=center;verticalAlign=middle;resizable=0;points=[];autosize=1;fontSize=20;" vertex="1" parent="1">
          <mxGeometry x="-165.00451292492073" y="239.99804292224704" width="40" height="30" as="geometry" />
        </mxCell>
        <mxCell id="GLs9wwnoJWoWIzgxKCds-482" value="9:8" style="text;html=1;align=center;verticalAlign=middle;resizable=0;points=[];autosize=1;fontSize=20;" vertex="1" parent="1">
          <mxGeometry x="-405.00451292492073" y="239.99804292224704" width="40" height="30" as="geometry" />
        </mxCell>
        <mxCell id="GLs9wwnoJWoWIzgxKCds-483" value="11:10" style="text;html=1;align=center;verticalAlign=middle;resizable=0;points=[];autosize=1;fontSize=20;" vertex="1" parent="1">
          <mxGeometry x="-659.997370067778" y="239.9994366164435" width="60" height="30" as="geometry" />
        </mxCell>
        <mxCell id="GLs9wwnoJWoWIzgxKCds-484" value="13:12" style="text;html=1;align=center;verticalAlign=middle;resizable=0;points=[];autosize=1;fontSize=20;" vertex="1" parent="1">
          <mxGeometry x="-909.9997129433714" y="239.99673539674495" width="70" height="30" as="geometry" />
        </mxCell>
        <mxCell id="GLs9wwnoJWoWIzgxKCds-485" value="15:14" style="text;html=1;align=center;verticalAlign=middle;resizable=0;points=[];autosize=1;fontSize=20;" vertex="1" parent="1">
          <mxGeometry x="-1149.9997129433714" y="239.99673539674495" width="70" height="30" as="geometry" />
        </mxCell>
        <mxCell id="GLs9wwnoJWoWIzgxKCds-486" value="17:16" style="text;html=1;align=center;verticalAlign=middle;resizable=0;points=[];autosize=1;fontSize=20;" vertex="1" parent="1">
          <mxGeometry x="-1389.9997826978356" y="240.0024845596914" width="70" height="30" as="geometry" />
        </mxCell>
        <mxCell id="GLs9wwnoJWoWIzgxKCds-487" value="19:18" style="text;html=1;align=center;verticalAlign=middle;resizable=0;points=[];autosize=1;fontSize=20;" vertex="1" parent="1">
          <mxGeometry x="-1629.99549698355" y="239.9967702739771" width="70" height="30" as="geometry" />
        </mxCell>
        <mxCell id="GLs9wwnoJWoWIzgxKCds-488" value="21:20" style="text;html=1;align=center;verticalAlign=middle;resizable=0;points=[];autosize=1;fontSize=20;" vertex="1" parent="1">
          <mxGeometry x="-1870.0041032893535" y="239.99391313111997" width="70" height="30" as="geometry" />
        </mxCell>
        <mxCell id="GLs9wwnoJWoWIzgxKCds-489" value="23:22" style="text;html=1;align=center;verticalAlign=middle;resizable=0;points=[];autosize=1;fontSize=20;" vertex="1" parent="1">
          <mxGeometry x="-2110.004103289353" y="239.99391313111997" width="70" height="30" as="geometry" />
        </mxCell>
        <mxCell id="GLs9wwnoJWoWIzgxKCds-490" value="25:24" style="text;html=1;align=center;verticalAlign=middle;resizable=0;points=[];autosize=1;fontSize=20;" vertex="1" parent="1">
          <mxGeometry x="-2350.002674717925" y="240.00391313111996" width="70" height="30" as="geometry" />
        </mxCell>
        <mxCell id="GLs9wwnoJWoWIzgxKCds-491" value="27:26" style="text;html=1;align=center;verticalAlign=middle;resizable=0;points=[];autosize=1;fontSize=20;" vertex="1" parent="1">
          <mxGeometry x="-2590.0012461464967" y="239.99962741683424" width="70" height="30" as="geometry" />
        </mxCell>
        <mxCell id="GLs9wwnoJWoWIzgxKCds-492" value="29:28" style="text;html=1;align=center;verticalAlign=middle;resizable=0;points=[];autosize=1;fontSize=20;" vertex="1" parent="1">
          <mxGeometry x="-2830.0012461464967" y="239.99962741683424" width="70" height="30" as="geometry" />
        </mxCell>
        <mxCell id="GLs9wwnoJWoWIzgxKCds-493" value="31:30" style="text;html=1;align=center;verticalAlign=middle;resizable=0;points=[];autosize=1;fontSize=20;" vertex="1" parent="1">
          <mxGeometry x="-3069.9998175750684" y="239.99105598826281" width="70" height="30" as="geometry" />
        </mxCell>
        <mxCell id="GLs9wwnoJWoWIzgxKCds-494" value="31:28" style="text;html=1;align=center;verticalAlign=middle;resizable=0;points=[];autosize=1;fontSize=20;" vertex="1" parent="1">
          <mxGeometry x="-3069.9983715650233" y="359.9953417025485" width="70" height="30" as="geometry" />
        </mxCell>
        <mxCell id="GLs9wwnoJWoWIzgxKCds-495" value="31:24" style="text;html=1;align=center;verticalAlign=middle;resizable=0;points=[];autosize=1;fontSize=20;" vertex="1" parent="1">
          <mxGeometry x="-3070.0012287078807" y="480.00248455969137" width="70" height="30" as="geometry" />
        </mxCell>
        <mxCell id="GLs9wwnoJWoWIzgxKCds-496" value="31:16" style="text;html=1;align=center;verticalAlign=middle;resizable=0;points=[];autosize=1;fontSize=20;" vertex="1" parent="1">
          <mxGeometry x="-3069.9998001364524" y="599.996735396745" width="70" height="30" as="geometry" />
        </mxCell>
        <mxCell id="GLs9wwnoJWoWIzgxKCds-497" value="31:0" style="text;html=1;align=center;verticalAlign=middle;resizable=0;points=[];autosize=1;fontSize=20;" vertex="1" parent="1">
          <mxGeometry x="-3060.0012287078807" y="720.0038433766557" width="50" height="30" as="geometry" />
        </mxCell>
        <mxCell id="GLs9wwnoJWoWIzgxKCds-498" value="27:24" style="text;html=1;align=center;verticalAlign=middle;resizable=0;points=[];autosize=1;fontSize=20;" vertex="1" parent="1">
          <mxGeometry x="-2590.004085850738" y="359.9967179581289" width="70" height="30" as="geometry" />
        </mxCell>
        <mxCell id="GLs9wwnoJWoWIzgxKCds-499" value="23:20" style="text;html=1;align=center;verticalAlign=middle;resizable=0;points=[];autosize=1;fontSize=20;" vertex="1" parent="1">
          <mxGeometry x="-2110.0026572793095" y="359.99096879518254" width="70" height="30" as="geometry" />
        </mxCell>
        <mxCell id="GLs9wwnoJWoWIzgxKCds-500" value="23:16" style="text;html=1;align=center;verticalAlign=middle;resizable=0;points=[];autosize=1;fontSize=20;" vertex="1" parent="1">
          <mxGeometry x="-2110.0026572793095" y="480.00096879518253" width="70" height="30" as="geometry" />
        </mxCell>
        <mxCell id="GLs9wwnoJWoWIzgxKCds-501" value="19:16" style="text;html=1;align=center;verticalAlign=middle;resizable=0;points=[];autosize=1;fontSize=20;" vertex="1" parent="1">
          <mxGeometry x="-1629.9983018105595" y="359.99668308089673" width="70" height="30" as="geometry" />
        </mxCell>
        <mxCell id="GLs9wwnoJWoWIzgxKCds-502" value="15:12" style="text;html=1;align=center;verticalAlign=middle;resizable=0;points=[];autosize=1;fontSize=20;" vertex="1" parent="1">
          <mxGeometry x="-1150.0039463418095" y="360.0024322438432" width="70" height="30" as="geometry" />
        </mxCell>
        <mxCell id="GLs9wwnoJWoWIzgxKCds-503" value="15:8" style="text;html=1;align=center;verticalAlign=middle;resizable=0;points=[];autosize=1;fontSize=20;" vertex="1" parent="1">
          <mxGeometry x="-1140.0039463418095" y="480.0024322438432" width="50" height="30" as="geometry" />
        </mxCell>
        <mxCell id="GLs9wwnoJWoWIzgxKCds-504" value="15:0" style="text;html=1;align=center;verticalAlign=middle;resizable=0;points=[];autosize=1;fontSize=20;" vertex="1" parent="1">
          <mxGeometry x="-1139.9968383618989" y="599.9938608152719" width="50" height="30" as="geometry" />
        </mxCell>
        <mxCell id="GLs9wwnoJWoWIzgxKCds-505" value="11:8" style="text;html=1;align=center;verticalAlign=middle;resizable=0;points=[];autosize=1;fontSize=20;" vertex="1" parent="1">
          <mxGeometry x="-659.9968034846667" y="360.006735396745" width="50" height="30" as="geometry" />
        </mxCell>
        <mxCell id="GLs9wwnoJWoWIzgxKCds-506" value="7:4" style="text;html=1;align=center;verticalAlign=middle;resizable=0;points=[];autosize=1;fontSize=20;" vertex="1" parent="1">
          <mxGeometry x="-165.00816230163113" y="359.986735396745" width="40" height="30" as="geometry" />
        </mxCell>
        <mxCell id="GLs9wwnoJWoWIzgxKCds-507" value="7:0" style="text;html=1;align=center;verticalAlign=middle;resizable=0;points=[];autosize=1;fontSize=20;" vertex="1" parent="1">
          <mxGeometry x="-165.00816230163116" y="479.996735396745" width="40" height="30" as="geometry" />
        </mxCell>
        <mxCell id="GLs9wwnoJWoWIzgxKCds-508" value="3:0" style="text;html=1;align=center;verticalAlign=middle;resizable=0;points=[];autosize=1;fontSize=20;" vertex="1" parent="1">
          <mxGeometry x="314.99755198408315" y="360.01102111103074" width="40" height="30" as="geometry" />
        </mxCell>
        <mxCell id="GLs9wwnoJWoWIzgxKCds-509" value="23:0" style="text;html=1;align=center;verticalAlign=middle;resizable=0;points=[];autosize=1;fontSize=20;" vertex="1" parent="1">
          <mxGeometry x="-2100.0012715453286" y="840.0028044557165" width="50" height="30" as="geometry" />
        </mxCell>
        <mxCell id="GLs9wwnoJWoWIzgxKCds-510" value="27:0" style="text;html=1;align=center;verticalAlign=middle;resizable=0;points=[];autosize=1;fontSize=20;" vertex="1" parent="1">
          <mxGeometry x="-2580.0012715453286" y="960.0028044557165" width="50" height="30" as="geometry" />
        </mxCell>
        <mxCell id="GLs9wwnoJWoWIzgxKCds-511" value="29:0" style="text;html=1;align=center;verticalAlign=middle;resizable=0;points=[];autosize=1;fontSize=20;" vertex="1" parent="1">
          <mxGeometry x="-2820.0041947702825" y="1080.0016279851282" width="50" height="30" as="geometry" />
        </mxCell>
        <mxCell id="GLs9wwnoJWoWIzgxKCds-512" value="25:)" style="text;html=1;align=center;verticalAlign=middle;resizable=0;points=[];autosize=1;fontSize=20;" vertex="1" parent="1">
          <mxGeometry x="-2340.0000771232235" y="1079.9998632792458" width="50" height="30" as="geometry" />
        </mxCell>
        <mxCell id="GLs9wwnoJWoWIzgxKCds-513" value="21:0" style="text;html=1;align=center;verticalAlign=middle;resizable=0;points=[];autosize=1;fontSize=20;" vertex="1" parent="1">
          <mxGeometry x="-1860.0000771232235" y="1079.9998632792458" width="50" height="30" as="geometry" />
        </mxCell>
        <mxCell id="GLs9wwnoJWoWIzgxKCds-514" value="17:0" style="text;html=1;align=center;verticalAlign=middle;resizable=0;points=[];autosize=1;fontSize=20;" vertex="1" parent="1">
          <mxGeometry x="-1380.0033022753535" y="1080.002175652471" width="50" height="30" as="geometry" />
        </mxCell>
        <mxCell id="GLs9wwnoJWoWIzgxKCds-515" value="13:0" style="text;html=1;align=center;verticalAlign=middle;resizable=0;points=[];autosize=1;fontSize=20;" vertex="1" parent="1">
          <mxGeometry x="-899.99920643753" y="1080.0018308248848" width="50" height="30" as="geometry" />
        </mxCell>
        <mxCell id="GLs9wwnoJWoWIzgxKCds-516" value="11:0" style="text;html=1;align=center;verticalAlign=middle;resizable=0;points=[];autosize=1;fontSize=20;" vertex="1" parent="1">
          <mxGeometry x="-659.99920643753" y="960.0018308248848" width="50" height="30" as="geometry" />
        </mxCell>
        <mxCell id="GLs9wwnoJWoWIzgxKCds-517" value="9:0" style="text;html=1;align=center;verticalAlign=middle;resizable=0;points=[];autosize=1;fontSize=20;" vertex="1" parent="1">
          <mxGeometry x="-410.0046394924869" y="1079.999072204195" width="40" height="30" as="geometry" />
        </mxCell>
        <mxCell id="GLs9wwnoJWoWIzgxKCds-518" value="5:0" style="text;html=1;align=center;verticalAlign=middle;resizable=0;points=[];autosize=1;fontSize=20;" vertex="1" parent="1">
          <mxGeometry x="69.99570533509942" y="1080.0007542489152" width="40" height="30" as="geometry" />
        </mxCell>
      </root>
    </mxGraphModel>
  </diagram>
</mxfile>
